<?xml version="1.0" encoding="utf-8"?>
<!-- Generator: Adobe Illustrator 21.1.0, SVG Export Plug-In . SVG Version: 6.00 Build 0)  -->
<svg version="1.1" id="Слой_1" xmlns="http://www.w3.org/2000/svg" xmlns:xlink="http://www.w3.org/1999/xlink" x="0px" y="0px"
	 viewBox="0 0 911 371" style="enable-background:new 0 0 911 371;" xml:space="preserve">
<style type="text/css">
	.st0{fill:#111111;}
</style>
<g>
	<path fill="#ffffff" d="M205,354.8c-0.5,0.4-1,0.8-1.5,1.2c-3.8,3.4-8.2,5.2-13.3,5.3c-6.8,0.1-13.6,0-20.4,0c-7.8,0-15.7-0.1-23.5,0
		c-7.1,0.1-12.7-2.6-17.1-8.1c-0.3-0.4-0.7-0.8-1.2-1.3c-0.5,0.5-0.9,0.8-1.2,1.2c-4.4,5.5-10.1,8.2-17.1,8.2
		c-9.4,0-18.7-0.1-28.1-0.1c-5.4,0-10.7,0-16.1,0c-9.9,0-17.9-6.1-20.3-15.8c-2.4-9.7-4.5-19.5-6.8-29.2c-2.7-11.4-5.3-22.9-8-34.3
		c-2.6-11.1-5.1-22.1-7.7-33.2c-0.8-3.7-1.8-7.3-2.5-11c-1.4-7,0.5-13.2,5.4-18.3c1.1-1.2,1.5-2.3,1.5-3.8c0-16.6,0-33.1,0-49.7
		c0-30.2,0.1-60.5,0.1-90.7c0-9.4,0.2-18.7,0.1-28.1c-0.2-10.9,7.9-21.5,21.3-21.4c8.1,0,16.2,0.1,24.2,0.1c26.5,0,53,0,79.4,0
		c13.8,0,27.7,0.1,41.5,0.1c3.3,0,6.5,0.4,9.5,2c1.1,0.6,2.1,0.5,3.2,0c2.9-1.4,6.1-2,9.3-2c21.8,0,43.7,0,65.5,0.1
		c11.1,0.1,19.9,9.1,20.1,20.4c0.1,5,0,10.1,0,15.1c0,0.8,0.1,1.5,0.1,2.3c0.2,0.1,0.3,0.1,0.5,0.2c0.6-0.6,1.2-1.2,1.8-1.8
		c11.5-13.2,25.8-22.4,42-28.6c12.8-4.9,26-7.8,39.6-9.1c15.8-1.6,31.6-1.3,47.4,0c12.4,1.1,24.8,3,37,5.4c3.6,0.7,6.9,2.1,9.8,4.3
		c0.4,0.3,0.8,0.5,1.3,0.9c0.5-0.4,0.9-0.7,1.2-1.1c4.3-5.2,10-7.6,16.6-7.6c5,0,9.9,0.1,14.9,0.1c16.4,0,32.8,0,49.2,0
		c5.4,0,10.3,1.5,14.4,5.1c4.8,4.2,7.1,9.6,7.1,15.9c0,11.5,0,23,0,34.6c0,0.8,0,1.6,0,2.4c0,0.8,0.4,1.2,1.2,1.2
		c0.7,0,1.2-0.3,1.3-1.1c0-0.6,0-1.3,0-1.9c0-11.8,0.1-23.5,0.1-35.3c0-9.5,5.8-17.3,15-20c1.7-0.5,3.5-0.7,5.2-0.7
		c21.8,0,43.5-0.1,65.3,0c2.2,0,4.4,0.6,6.6,0.9c1,0.1,2,0.1,3.1-0.1c1.8-0.2,3.6-0.7,5.4-0.7c29,0,57.9,0,86.9,0
		c27.5,0,55,0,82.6,0.1c4.2,0,8.3,0,12.5,0.1c8.2,0.1,15.8,5.5,18.6,13.2c0.6,1.8,0.9,3.8,0.9,5.6c0.1,16.8,0.1,33.6,0.1,50.4
		c0,1.8,0.1,3.5,0.1,5.3c0,7.2-4.9,14.2-11.8,16c-3.1,0.8-6.5,1-9.7,1c-11,0.1-21.9,0-32.9,0c-0.6,0-1.1,0-1.7,0
		c-1,0-1.4,0.6-1.5,1.5c0,0.7,0,1.4,0,2.2c0,13,0,26.1,0,39.1c0,16.4-0.1,32.8-0.1,49.2c0,3.4,0,3.4,3.4,3.4
		c8.9,0,17.8,0.1,26.6,0.1c6.5,0.1,12,2.4,16.3,7.3c1,1.1,1.9,2.4,2.9,3.5c1.8,2.3,2.6,4.7,2.5,7.7c-0.2,22.7-0.1,45.4-0.2,68.2
		c0,10.9-2.3,21.3-7.5,30.9c-5.8,10.6-14.2,18.4-25,23.8c-10.2,5.1-21.2,7.6-32.5,8.4c-9,0.6-17.9,0.4-26.8-0.9
		c-10.5-1.6-20.4-4.7-29.4-10.4c-0.4-0.2-0.8-0.4-1.4-0.7c-0.5,0.6-0.9,1.2-1.3,1.7c-4.2,5.7-9.8,8.7-16.8,8.7
		c-14.6,0-29.1,0-43.7-0.1c-3.7,0-7.1-1.1-10.2-3.2c-1.7-1.1-2.8-1.3-4.6-0.1c-3.1,2.2-6.8,3.2-10.6,3.2c-13.8,0-27.5,0-41.3,0
		c-2.9,0-5.7-0.6-8.4-1.8c-1-0.4-1.8-0.4-2.7,0c-2.9,1.3-5.9,1.8-9.1,1.7c-10.6-0.1-21.1,0-31.7,0c-1.2,0-2.5,0.1-3.6-0.2
		c-2.9-0.9-5.8-0.9-8.7,0c-1.1,0.3-2.2,0.3-3.3,0.3c-13.8,0-27.5-0.1-41.3-0.1c-4.7,0-9-1.1-12.9-3.8c-1-0.7-1.7-0.7-2.8,0
		c-3.8,2.7-8.2,3.8-12.9,3.8c-12.7,0-25.4,0-38.2,0c-16.6,0-33.1-0.1-49.7-0.1c-10.2,0-17.5-5.4-20.7-15.1c-0.6-1.7-1.1-3.5-1.7-5.3
		c-0.1-0.4-0.2-0.8-0.4-1.1c-0.3-0.7-0.5-1.6-1.5-1.6c-1.1,0-1.3,0.8-1.5,1.6c-0.7,2.2-1.3,4.4-2.1,6.6c-2.4,7.2-7.1,12.1-14.4,14.1
		c-2.2,0.6-4.6,0.7-6.9,0.8c-9.3,0-18.6-0.1-27.8-0.1c-19,0-37.9,0-56.9,0c-17.1,0-34.2-0.1-51.4-0.1c-5.9,0-11-1.8-15.2-5.9
		c-0.2-0.2-0.5-0.4-0.8-0.6C205.4,354.9,205.3,354.9,205,354.8z M498.6,47.3c-0.1,1.2-0.1,2.1-0.1,2.9c0,11.1-0.1,22.2-0.1,33.4
		c-0.1,29.4-0.1,58.9-0.2,88.3c0,14.3,0,28.6,0,43c0,0.9,0.1,1.7,0.2,2.5c0.5,0.2,0.7,0.3,0.9,0.3c11.9,0.1,23.8,0.2,35.7,0.2
		c8.9,0,17.8,0,26.6,0c0.3,0,0.6-0.1,0.9-0.2c0.1,0,0.1-0.1,0.2-0.1c0.1,0,0.1-0.1,0.4-0.3c0-0.6,0-1.4,0-2.2c0-13.8,0-27.7,0-41.5
		c0-5.3,0-10.6,0-15.8c0-3,0.1-3,3.1-3c0.9,0,1.8,0,2.6,0c11.7,0,23.4,0.1,35,0.1c3.5,0,3.6,0,3.6,3.6c0,18.4-0.1,36.8-0.1,55.2
		c0,4.2,0,4.2,4.2,4.2c19.3,0.1,38.6,0.1,57.8,0.1c0.6,0,1.1,0,1.7,0c0.9,0,1.3-0.5,1.3-1.4c0-0.5,0-1,0-1.4
		c0-13.9,0.1-27.8,0.1-41.8c0-16.3,0-32.6,0-49c0-24.6,0-49.3,0-73.9c0-1-0.1-2-0.2-3c-3.5-0.6-62.7-0.4-64.6,0.2
		c0,0.6-0.1,1.4-0.1,2.1c-0.1,17.7-0.1,35.4-0.1,53c0,1-0.1,2-0.2,3.3c-1.2,0.1-2.2,0.3-3.2,0.3c-11.5,0-23,0-34.6,0
		c-1.4,0-2.9,0-4.3,0c-1.9-0.1-2.1-0.3-2.2-2.3c0-0.3,0-0.6,0-1c0-17.7,0-35.4,0-53c0-0.8-0.1-1.7-0.2-2.7
		C541.6,47.3,520.2,47.3,498.6,47.3z M466.4,50.5c-0.7-0.2-1-0.3-1.4-0.4c-7.8-1.3-15.6-2.6-23.4-3.8c-7.9-1.2-15.9-1.7-23.9-2
		c-8.5-0.3-17-0.5-25.4,0.4c-5.3,0.6-10.7,0.9-15.9,1.8c-8,1.4-15.8,3.4-23.3,6.4c-9.9,3.8-18.9,9-26.8,16c-8.5,7.6-15,16.5-19.5,27
		c-3.9,9-6.2,18.3-7,28c-0.9,12,0.2,23.8,3.5,35.4c3.7,13,10,24.5,19.4,34.2c6.4,6.6,13.9,11.8,22.2,15.7c7.4,3.6,15.2,6.2,23.3,7.9
		c7.8,1.6,15.7,2.6,23.8,3.1c12.1,0.7,24.1,0.3,36.2-0.7c6.8-0.5,13.5-1.5,20.2-2.5c7.8-1.1,15.5-2.9,23.2-5.1
		c1.3-0.4,1.6-1.1,1.6-2.2c0-1.6,0-3.2,0-4.8c0-21.4,0.1-42.9,0.1-64.3c0-1.3-0.1-2.6-0.2-3.9c-3.1-0.5-53.9-0.4-55.6,0.2
		c0,1.2,0,2.4,0,3.7c0,11.4-0.1,22.9-0.1,34.3c0,2-0.2,2.4-2.2,2.8c-6.7,1.3-13.4,1.5-20-0.2c-13.4-3.4-22.4-11.6-26.2-25
		c-3.3-11.5-2.8-23,0.7-34.3c2.7-8.8,7.8-16,15.2-21.6c5.7-4.3,12.2-6.9,19.1-8.6c10.2-2.4,20.5-2.4,30.8-1.2
		c10.7,1.2,21,3.9,30.7,8.8c0.2,0.1,0.6,0,0.9,0C466.4,80.5,466.4,65.6,466.4,50.5z M48.2,46.5c0,1.1,0,2,0,2.9
		c0,14.3-0.1,28.6-0.1,42.9c0,20.6,0,41.1,0,61.7c0,9-0.1,17.9-0.2,26.9c0,11.3,0,22.6,0,33.8c0,0.8,0.2,1.5,0.2,2.2
		c4.1,0.6,62.8,0.5,64.6-0.1c0-0.6,0.1-1.3,0.1-2.1c0.1-18.2,0.1-36.5,0.1-54.7c0-3.8,0-3.8,3.8-3.8c23.8,0,47.7,0,71.5,0
		c0.9,0,1.9-0.1,3-0.1c0-13.5,0-26.8,0-40.2c-0.6-0.1-1-0.2-1.5-0.2c-2.2,0-4.5,0.1-6.7,0.1c-20.2,0-40.3,0-60.5,0
		c-2.6,0-5.1-0.1-7.7-0.2c-1.6-0.1-1.8-0.3-1.9-1.8c0-0.6,0-1.1,0-1.7c0-7.1,0-14.2,0-21.4c0-3.6,0-3.6,3.6-3.6c21,0,41.9,0,62.9,0
		c2.4,0,4.8,0.1,7.2,0.2c2.4,0,4.7,0,7.2,0c0.1-1,0.1-1.7,0.1-2.4c0-11.8,0-23.7,0.1-35.5c0-0.4,0-0.8,0-1.2c0-0.9-0.5-1.3-1.3-1.4
		c-0.6,0-1.1,0-1.7,0c-17.5-0.1-35-0.2-52.5-0.2c-29.4-0.1-58.7-0.1-88.1-0.1C49.9,46.4,49.3,46.5,48.2,46.5z M745.6,217.8
		c1,0.1,1.6,0.2,2.3,0.2c20,0,40,0.1,60,0.1c0.8,0,1.7-0.2,2.8-0.3c0-40.1,0-80,0-120.1c1.1-0.1,2-0.2,2.8-0.2c17.5,0,35,0,52.5-0.1
		c2.3,0,2.5-0.1,2.5-2.4c0-15.1,0-30.2,0-45.3c0-0.6-0.2-1.2-0.3-2c-60-0.1-119.9-0.3-179.7-0.4c-0.6,2.5-0.6,47.5,0,49.7
		c0.6,0.1,1.2,0.2,1.8,0.2c5.5,0.1,11,0.2,16.6,0.2c12,0,24,0,36,0.1c2.8,0,2.9,0.1,2.9,2.8c0,4.4,0,8.8,0,13.2
		c0,33.3-0.1,66.5-0.1,99.8C745.6,214.7,745.6,216.1,745.6,217.8z M215.2,234.4c-0.8-0.1-1.4-0.3-2-0.3c-10.6,0-21.3,0-31.9,0
		c-2,0-2,0-2.4,2.1c-1.5,7.8-3,15.7-4.6,23.5c-1,5-2,10-2.9,15.1c-1.6,8.3-3.1,16.7-4.7,25c-0.2,0.8-0.6,1.5-0.8,2.3
		c-0.2,0-0.4,0-0.6,0c-0.3-0.5-0.6-1-0.8-1.6c-0.2-0.7-0.3-1.4-0.4-2.1c-2-8.2-4-16.5-6-24.7c-3-12.5-6.1-25-9.1-37.5
		c-0.5-2-0.6-2.1-2.6-2.1c-11.6,0-23.2-0.1-34.8-0.1c-0.6,0-1.2,0.1-2,0.2c-0.7,2.8-1.4,5.4-2.1,8.1c-2.8,11.2-5.6,22.5-8.4,33.7
		c-2,7.9-4,15.8-6,23.7c-0.2,0.8-0.3,1.7-1.4,2.3c-0.3-0.7-0.6-1.2-0.7-1.8c-1.1-5.5-2.1-11-3.1-16.5c-1.6-8.8-3.2-17.6-4.8-26.4
		c-1.3-7.1-2.7-14.1-4.1-21.2c-0.4-2.2-0.4-2.2-2.6-2.2c-11.3,0-22.6-0.1-33.8-0.1c-0.5,0-1,0.2-1.7,0.3c0.1,0.7,0.1,1.2,0.3,1.8
		c1.7,7.4,3.4,14.8,5.1,22.2c2.7,11.4,5.4,22.9,8,34.3c3.5,15.3,7.1,30.5,10.6,45.8c0.4,1.9,0.6,2.1,2.6,2.1
		c13.4,0.1,26.7,0.1,40.1,0.1c0.8,0,1.6-0.1,2.5-0.2c1.4-5.9,2.8-11.6,4.2-17.3c1.4-5.8,2.8-11.7,4.2-17.5
		c1.4-5.7,2.8-11.5,4.2-17.2c1.4-5.8,2.6-11.6,4.4-17.3c1.5,0.3,1.4,1.4,1.6,2.2c2.4,9.6,4.9,19.2,7.3,28.8
		c1.9,7.4,3.7,14.9,5.6,22.3c1.1,4.5,2.3,9,3.4,13.5c0.7,2.8,0.8,2.8,3.7,2.8c13,0,26.1,0,39.1,0.1c1.2,0,1.7-0.4,1.9-1.5
		c0.5-2.5,1.2-5,1.8-7.5c2.4-9.9,4.8-19.9,7.2-29.8c2.1-8.6,4.1-17.3,6.2-25.9C208.4,262.2,211.7,248.5,215.2,234.4z M215.4,217.3
		c1.3,0.1,2.3,0.2,3.3,0.2c16.6,0,33.3,0,49.9,0c3.3,0,6.6,0,9.8,0c1.7,0,1.9-0.2,2-1.9c0-0.2,0-0.5,0-0.7c0-17.3,0-34.6,0-51.8
		c0-37.6,0-75.2,0-112.8c0-0.6,0-1.3,0-1.9c0-1-0.5-1.4-1.5-1.5c-1.1,0-2.2,0-3.4,0c-15.8,0-31.5-0.1-47.3-0.1c-3.6,0-7.2,0-10.8,0
		c-1.7,0-1.9,0.3-2,2c0,0.4,0,0.8,0,1.2c0,10.6-0.1,21.1-0.1,31.7c0,44.4-0.1,88.8-0.1,133.2C215.4,215.5,215.4,216.3,215.4,217.3z
		 M714.4,290.9c0.4-0.5,0.5-0.7,0.6-0.8c0.6-0.2,1.2-0.4,1.8-0.5c3.9-0.9,7.4-2.5,10.7-4.7c12.6-8.5,13.8-24.7,8.1-35.5
		c-2.9-5.6-7.9-8.9-13.6-11.1c-6.4-2.5-13.2-3.5-20-3.6c-12.1-0.2-24.2-0.1-36.2-0.1c-5.5,0-11-0.1-16.6-0.1c-5,0-9.9,0-14.9,0
		c-2.3,0-2.4,0.1-2.4,2.5c0,1.6,0,3.2,0,4.8c0,21.5-0.1,43-0.1,64.6c0,10,0,20,0,30c0,1.1,0,2.2,0,3.4c0,1,0.5,1.5,1.5,1.5
		c0.9,0,1.8,0,2.6,0c10.7,0,21.4,0,32.2,0c0.9,0,1.8,0,2.6,0c1,0,1.5-0.5,1.5-1.5c0-0.6,0-1.1,0-1.7c0-9,0-17.9,0-26.9
		c0-1.8,0-3.7,0-5.5c0-1.2,0.5-1.8,1.7-1.8c3.7,0.1,7.4-0.1,11,0.3c5.9,0.7,9.4,4.3,10.3,9.8c1.4,8.3,2.5,16.6,3.8,24.9
		c0.3,2.2,0.3,2.3,2.5,2.3c12.8,0.1,25.6,0.1,38.4,0.2c0.5,0,1-0.2,1.6-0.3c0-0.5,0.1-0.8,0-1.1c-0.6-2.7-1.3-5.4-2-8.2
		c-1.8-7.7-3.3-15.5-5.3-23.1c-2.4-9.2-8.5-14.8-17.7-17C716,291.4,715.3,291.2,714.4,290.9z M537.4,290.8c0-0.2,0-0.4,0-0.6
		c0.6-0.2,1.1-0.6,1.7-0.7c3.1-0.6,6-1.8,8.7-3.3c5.2-2.8,9.2-6.8,11.6-12.3c2.4-5.6,2.8-11.5,1.7-17.4c-1.5-8.7-6.9-14.4-14.7-18
		c-6.1-2.7-12.6-3.7-19.1-3.9c-8.6-0.3-17.3-0.3-25.9-0.3c-14.5-0.1-28.9-0.1-43.4-0.2c-0.9,0-1.9,0.1-3.1,0.1
		c0.1,35.6-0.2,71,0,106.3c2.6,0.6,38,0.6,40.3,0c0-1.1,0-2.3,0-3.4c0-9.8,0-19.7,0-29.5c0-0.7,0-1.4,0-2.2c0.2-1.4,0.5-1.8,2-1.9
		c3,0,6.1-0.2,9.1,0.1c7.7,0.7,11.3,4.5,12.4,12.2c1,7.4,2.1,14.7,3.1,22.1c0.1,1,0.5,2,0.7,2.8c5.5,0.6,40.1,0.4,42-0.2
		c-0.8-3.6-1.6-7.1-2.4-10.7c-1.6-7-3.1-14.1-4.8-21c-1.4-5.9-4.6-10.7-9.8-14c-2.4-1.5-5-2.8-7.9-3.3
		C538.8,291.3,538.1,291,537.4,290.8z M821.6,234.6c0,1.1,0,1.9,0,2.6c0,19.6,0,39.2,0,58.8c0,1.5,0.1,3.1-0.1,4.6
		c-0.4,2.5-0.7,5.1-1.5,7.5c-1,3-2.7,5.7-5.8,7c-6.7,2.8-15.4,1.1-17.7-8.7c-0.6-2.8-0.9-5.7-0.9-8.5c0-20.1,0.1-40.1,0.1-60.2
		c0-0.9-0.2-1.8-0.2-2.7c-3.4-0.5-38.3-0.4-40.1,0.2c-0.1,1.3-0.3,2.6-0.3,3.9c0,19,0,37.9,0,56.9c0,4.9,0.2,9.7,1.2,14.5
		c1.7,8.7,5.8,16,12.8,21.6c6.3,5.1,13.7,7.9,21.5,9.4c11.8,2.3,23.7,2.3,35.5,0.2c7.4-1.4,14.3-3.9,20.5-8.3
		c6.2-4.4,10.5-10.2,13-17.4c1.9-5.5,2.5-11.2,2.5-17c0-11.8,0-23.7,0-35.5c0-8.7,0.2-17.4,0.2-26.1c0-0.5,0-1,0-1.4
		c0-0.7-0.4-1.2-1.2-1.2c-0.6,0-1.1,0-1.7,0c-10.6,0-21.1,0-31.7,0C825.8,234.6,823.9,234.6,821.6,234.6z M318.7,340.5
		c0.6,0.2,0.9,0.3,1.1,0.3c12.5,0,25,0,37.4,0c1.3,0,1.8-0.4,2.2-1.7c2-6.5,4-13,6.1-19.5c0.6-2,0.8-2.1,2.9-2.1
		c9.4,0,18.7,0,28.1,0c2.1,0,2.3,0.1,2.9,2.1c2,6.2,3.9,12.3,5.9,18.5c0.3,0.9,0.7,1.7,1.1,2.7c13.7,0,27.2,0,40.7,0
		c0.3,0,0.6-0.1,0.9-0.1c0.1,0,0.2-0.1,0.2-0.1c0.1-0.1,0.1-0.1,0.2-0.3c-0.1-0.3-0.2-0.6-0.3-1c-3.5-9.9-7-19.9-10.6-29.8
		c-5.9-16.6-11.7-33.1-17.6-49.7c-2.8-7.8-5.5-15.7-8.3-23.5c-0.7-2.1-0.8-2.1-2.9-2.1c-16.9,0-33.8-0.1-50.6-0.1
		c-2.1,0-2.2,0.2-2.9,2.1c-4.7,13.4-9.3,26.7-14,40.1c-3.9,11-7.8,22-11.7,33c-3.4,9.5-6.7,19-10,28.5
		C319.1,338.5,318.9,339.4,318.7,340.5z M314.9,316.1c-1.5,0-2.7,0-3.9,0c-14.2,0-28.5-0.1-42.7-0.1c-1.6,0-3.2,0-4.8,0
		c-1.7,0-1.9-0.3-2-2c-0.1-3.6-0.1-7.2-0.1-10.8c-0.1-5.1-0.1-4.5,4.6-4.6c14.3,0,28.6,0,42.9,0c2.6,0,2.7-0.1,2.7-2.7
		c0-6.2,0-12.5,0-18.7c0-0.8-0.1-1.5-0.2-2.5c-1.3,0-2.3,0-3.3,0c-14.7,0-29.4,0-44.1,0c-2.3,0-2.5-0.2-2.5-2.4c0-3.5,0-7,0-10.6
		c0-3.1,0.1-3.2,3.3-3.2c15.4,0.1,30.9,0.1,46.3,0.2c0.9,0,1.9-0.1,2.7-0.2c0.5-2.6,0.4-22.6-0.1-24.3c-2.7-0.6-90.5-0.5-92.7,0.1
		c0,17.6,0,35.2,0,52.9c0,17.7-0.3,35.4,0,53.1c4.7,0.6,91.9,0.5,93.9-0.1C314.9,332.4,314.9,324.4,314.9,316.1z M724.6,217
		c0-33.1,0-65.8,0-98.6c-1-0.1-1.8-0.1-2.5-0.1c-8.6,0-17.3,0-25.9,0c-0.5,0-1,0-1.4,0c-0.8,0-1.2,0.4-1.2,1.2
		c0,0.6-0.1,1.1-0.1,1.7c0,29.9-0.1,59.8-0.1,89.7c0,0.8,0.1,1.6,0.1,2.6C704,213.6,714.2,214.1,724.6,217z M163.7,219.4
		c0.4-0.1,0.5-0.1,0.7-0.2c0.3-0.2,0.5-0.4,0.7-0.6c4.1-3.6,8.8-5.3,14.2-5.3c4.1,0,8.2,0,12.2,0c0.9,0,1.7-0.1,2.8-0.1
		c0.1-4.2,0-8.2,0.1-12.1c0-4,0-8,0-12c0-4,0.2-7.9-0.1-12c-0.9,0-1.4,0-2,0c-14.2,0-28.4,0-42.7,0c-4.6,0-9.1-0.1-13.7-0.1
		c-2,0-2.2,0.3-2.2,2.2c0,10.6-0.1,21.3-0.1,31.9c0,0.6,0.2,1.2,0.3,2c1.1,0.1,2,0.1,3,0.2c4,0,8,0,12,0.1c3.7,0,7.1,1,10.3,2.9
		C160.8,217.1,162.2,218.3,163.7,219.4z M573.4,291.4c5.3,0,10.4-0.1,15.5-0.1c6.5,0,13,0,19.4,0c2.6,0,2.8-0.2,2.8-2.7
		c0-15.5,0.1-31,0.1-46.6c0-0.9,0-1.9,0-3.1c-1.8-0.1-3.3-0.2-4.7-0.3c-11.9-0.6-20-10.3-19.8-21.1c0.2-11,0-21.9,0-32.9
		c0-2.5,0-5,0-7.4c0-0.9-0.2-1.6-1.3-1.6c-1.1,0-1.3,0.8-1.3,1.6c-0.1,2.2-0.2,4.3-0.2,6.5c0,11.4,0,22.7,0,34.1
		c0,6.5-2.5,12-7.5,16.2c-0.6,0.5-1.1,1-1.6,1.5C585.6,254.6,585.1,273.2,573.4,291.4z M612.2,340.9c0-4.9,0-9.6,0-14.3
		c0-4.7,0.2-9.5-0.2-14.5c-1.5,0-2.6,0-3.8,0c-8.4,0-16.8,0-25.2,0c-3.7,0-3.6,0.1-3.6,3.8c0.1,6.5,0,13.1-0.1,19.6
		c0,1.7,0,3.5,0,5.3C590.4,340.9,601,340.9,612.2,340.9z M457.6,115.4c-0.5-0.7-0.6-0.8-0.7-0.9c-0.6-0.3-1.1-0.6-1.7-0.9
		c-9.1-4.2-18.8-6.1-28.8-6.7c-7.1-0.4-14.2-0.1-21.1,2.2c-8,2.6-13.8,7.7-16.1,16c-2,7-2.2,14.2-0.4,21.3c0.7,2.6,1.9,4.9,3.8,6.8
		c0.9,1,1.9,1.9,3.6,2.2c0.1-1.3,0.3-2.4,0.3-3.4c0-5.3,0-10.6,0-15.8c0.1-7,2.8-12.7,8.4-16.9c3.8-2.8,8.1-4,12.8-4
		c11.3,0,22.5,0.1,33.8,0.1C453.4,115.5,455.3,115.5,457.6,115.4z M301.7,201.6c-0.2,0.1-0.4,0.1-0.6,0.2c0,3,0,6,0,9.1
		c0,1.9,0.2,2.1,2.2,2.2c2.5,0.1,4.9,0.1,7.4,0.1c0.4,0,0.9-0.1,1.8-0.2C308.7,209,305.2,205.3,301.7,201.6z M475.7,115
		c0.1,0.2,0.1,0.4,0.2,0.6c0.4-0.1,0.9-0.2,1.3-0.2c-0.1-0.3-0.1-0.5-0.2-0.8C476.6,114.7,476.1,114.9,475.7,115z M334.6,229.6
		c0.2,0,0.4,0,0.6-0.1c0.3-0.7,0.7-1.4-0.9-1.9C334.4,228.5,334.5,229,334.6,229.6z"/>
	<path class="st0" d="M498.6,47.3c21.6,0,43,0,64.5,0c0.1,1,0.2,1.8,0.2,2.7c0,17.7,0,35.4,0,53c0,0.3,0,0.6,0,1
		c0,2,0.3,2.2,2.2,2.3c1.4,0,2.9,0,4.3,0c11.5,0,23,0,34.6,0c1,0,2-0.2,3.2-0.3c0.1-1.2,0.2-2.2,0.2-3.3c0.1-17.7,0.1-35.4,0.1-53
		c0-0.7,0.1-1.4,0.1-2.1c1.8-0.6,61-0.8,64.6-0.2c0.1,0.9,0.2,2,0.2,3c0,24.6,0,49.3,0,73.9c0,16.3,0,32.6,0,49
		c0,13.9-0.1,27.8-0.1,41.8c0,0.5,0,1,0,1.4c0,0.9-0.5,1.3-1.3,1.4c-0.6,0-1.1,0-1.7,0c-19.3,0-38.6-0.1-57.8-0.1
		c-4.2,0-4.2,0-4.2-4.2c0-18.4,0.1-36.8,0.1-55.2c0-3.6,0-3.6-3.6-3.6c-11.7,0-23.4-0.1-35-0.1c-0.9,0-1.8,0-2.6,0
		c-3.1,0-3.1,0.1-3.1,3c0,5.3,0,10.6,0,15.8c0,13.8,0,27.7,0,41.5c0,0.8,0,1.6,0,2.2c-0.3,0.2-0.3,0.3-0.4,0.3
		c-0.1,0-0.1,0.1-0.2,0.1c-0.3,0.1-0.6,0.2-0.9,0.2c-8.9,0-17.8,0-26.6,0c-11.9,0-23.8-0.1-35.7-0.2c-0.2,0-0.4-0.1-0.9-0.3
		c-0.1-0.8-0.2-1.6-0.2-2.5c0-14.3,0-28.6,0-43c0-29.4,0.1-58.9,0.2-88.3c0-11.1,0.1-22.2,0.1-33.4
		C498.5,49.4,498.5,48.5,498.6,47.3z"/>
	<path class="st0" d="M466.4,50.5c0,15.1,0,30,0,45.1c-0.4,0-0.7,0.1-0.9,0c-9.7-4.9-20-7.6-30.7-8.8c-10.3-1.2-20.6-1.3-30.8,1.2
		c-6.9,1.7-13.4,4.3-19.1,8.6c-7.4,5.5-12.5,12.8-15.2,21.6c-3.5,11.3-4,22.8-0.7,34.3c3.8,13.4,12.8,21.7,26.2,25
		c6.6,1.7,13.3,1.5,20,0.2c1.9-0.4,2.2-0.7,2.2-2.8c0-11.4,0.1-22.9,0.1-34.3c0-1.3,0-2.5,0-3.7c1.7-0.5,52.5-0.7,55.6-0.2
		c0.1,1.3,0.2,2.6,0.2,3.9c0,21.4,0,42.9-0.1,64.3c0,1.6,0,3.2,0,4.8c0,1.2-0.3,1.9-1.6,2.2c-7.6,2.2-15.3,4-23.2,5.1
		c-6.7,1-13.5,2-20.2,2.5c-12,0.9-24.1,1.4-36.2,0.7c-8-0.5-15.9-1.4-23.8-3.1c-8.1-1.7-15.9-4.3-23.3-7.9
		c-8.3-4-15.8-9.1-22.2-15.7c-9.5-9.7-15.8-21.2-19.4-34.2c-3.3-11.6-4.4-23.4-3.5-35.4c0.8-9.7,3.1-19,7-28
		c4.5-10.5,11-19.4,19.5-27c7.9-7.1,17-12.2,26.8-16c7.6-2.9,15.4-5,23.3-6.4c5.3-0.9,10.6-1.2,15.9-1.8c8.5-0.9,16.9-0.7,25.4-0.4
		c8,0.2,16,0.7,23.9,2c7.8,1.2,15.6,2.5,23.4,3.8C465.3,50.2,465.7,50.3,466.4,50.5z"/>
	<path class="st0" d="M48.2,46.5c1-0.1,1.7-0.2,2.3-0.2c29.4,0,58.7,0,88.1,0.1c17.5,0,35,0.1,52.5,0.2c0.6,0,1.1,0,1.7,0
		c0.8,0,1.3,0.5,1.3,1.4c0,0.4,0,0.8,0,1.2c0,11.8,0,23.7-0.1,35.5c0,0.7-0.1,1.4-0.1,2.4c-2.5,0-4.9,0.1-7.2,0
		c-2.4,0-4.8-0.2-7.2-0.2c-21,0-41.9,0-62.9,0c-3.6,0-3.6,0-3.6,3.6c0,7.1,0,14.2,0,21.4c0,0.6,0,1.1,0,1.7c0.1,1.5,0.3,1.8,1.9,1.8
		c2.6,0.1,5.1,0.2,7.7,0.2c20.2,0,40.3,0,60.5,0c2.2,0,4.5-0.1,6.7-0.1c0.5,0,0.9,0.1,1.5,0.2c0,13.4,0,26.7,0,40.2
		c-1.2,0.1-2.1,0.1-3,0.1c-23.8,0-47.7,0-71.5,0c-3.8,0-3.8,0-3.8,3.8c0,18.2-0.1,36.5-0.1,54.7c0,0.7-0.1,1.4-0.1,2.1
		c-1.8,0.6-60.5,0.7-64.6,0.1c-0.1-0.7-0.2-1.4-0.2-2.2c0-11.3,0-22.6,0-33.8c0-9,0.2-17.9,0.2-26.9c0-20.6,0-41.1,0-61.7
		c0-14.3,0.1-28.6,0.1-42.9C48.2,48.5,48.2,47.7,48.2,46.5z"/>
	<path class="st0" d="M745.6,217.8c0-1.7,0-3.1,0-4.6c0-33.3,0.1-66.5,0.1-99.8c0-4.4,0-8.8,0-13.2c0-2.7-0.1-2.8-2.9-2.8
		c-12,0-24,0-36-0.1c-5.5,0-11-0.1-16.6-0.2c-0.6,0-1.2-0.1-1.8-0.2c-0.6-2.3-0.6-47.3,0-49.7c59.8,0.1,119.6,0.3,179.7,0.4
		c0.1,0.8,0.3,1.4,0.3,2c0,15.1,0,30.2,0,45.3c0,2.3-0.1,2.4-2.5,2.4c-17.5,0-35,0-52.5,0.1c-0.8,0-1.7,0.1-2.8,0.2
		c0,40.1,0,80,0,120.1c-1.1,0.1-2,0.3-2.8,0.3c-20,0-40-0.1-60-0.1C747.3,218,746.7,217.9,745.6,217.8z"/>
	<path class="st0" d="M215.2,234.4c-3.4,14.1-6.8,27.8-10.1,41.6c-2.1,8.6-4.1,17.3-6.2,25.9c-2.4,9.9-4.8,19.9-7.2,29.8
		c-0.6,2.5-1.3,5-1.8,7.5c-0.2,1.2-0.8,1.5-1.9,1.5c-13-0.1-26.1-0.1-39.1-0.1c-3,0-3,0-3.7-2.8c-1.2-4.5-2.3-9-3.4-13.5
		c-1.9-7.4-3.7-14.9-5.6-22.3c-2.4-9.6-4.9-19.2-7.3-28.8c-0.2-0.8-0.1-1.8-1.6-2.2c-1.8,5.7-2.9,11.5-4.4,17.3
		c-1.4,5.7-2.8,11.5-4.2,17.2c-1.4,5.8-2.8,11.7-4.2,17.5c-1.4,5.7-2.8,11.5-4.2,17.3c-0.9,0.1-1.7,0.2-2.5,0.2
		c-13.4,0-26.7-0.1-40.1-0.1c-2,0-2.1-0.1-2.6-2.1c-3.5-15.3-7-30.5-10.6-45.8c-2.7-11.4-5.4-22.9-8-34.3
		c-1.7-7.4-3.4-14.8-5.1-22.2c-0.1-0.5-0.2-1.1-0.3-1.8c0.6-0.1,1.1-0.3,1.7-0.3c11.3,0,22.6,0,33.8,0.1c2.1,0,2.1,0,2.6,2.2
		c1.4,7.1,2.7,14.1,4.1,21.2c1.6,8.8,3.2,17.6,4.8,26.4c1,5.5,2.1,11,3.1,16.5c0.1,0.6,0.4,1.1,0.7,1.8c1.1-0.6,1.2-1.5,1.4-2.3
		c2-7.9,4-15.8,6-23.7c2.8-11.2,5.6-22.5,8.4-33.7c0.7-2.7,1.4-5.4,2.1-8.1c0.8-0.1,1.4-0.2,2-0.2c11.6,0,23.2,0.1,34.8,0.1
		c2,0,2.1,0.1,2.6,2.1c3,12.5,6.1,25,9.1,37.5c2,8.2,4,16.5,6,24.7c0.2,0.7,0.2,1.4,0.4,2.1c0.2,0.5,0.5,1,0.8,1.6
		c0.2,0,0.4,0,0.6,0c0.3-0.8,0.7-1.5,0.8-2.3c1.6-8.3,3.1-16.7,4.7-25c0.9-5,1.9-10,2.9-15.1c1.5-7.8,3-15.7,4.6-23.5
		c0.4-2.1,0.4-2.1,2.4-2.1c10.6,0,21.3,0,31.9,0C213.7,234.1,214.3,234.2,215.2,234.4z"/>
	<path class="st0" d="M215.4,217.3c0-1,0-1.8,0-2.6c0-44.4,0-88.8,0.1-133.2c0-10.6,0-21.1,0.1-31.7c0-0.4,0-0.8,0-1.2
		c0.1-1.7,0.3-1.9,2-2c3.6,0,7.2,0,10.8,0c15.8,0,31.5,0.1,47.3,0.1c1.1,0,2.2,0,3.4,0c0.9,0,1.5,0.5,1.5,1.5c0,0.6,0,1.3,0,1.9
		c0,37.6,0,75.2,0,112.8c0,17.3,0,34.6,0,51.8c0,0.2,0,0.5,0,0.7c-0.1,1.7-0.3,1.9-2,1.9c-3.3,0-6.6,0-9.8,0c-16.6,0-33.3,0-49.9,0
		C217.7,217.5,216.7,217.4,215.4,217.3z"/>
	<path class="st0" d="M714.4,290.9c0.9,0.3,1.5,0.5,2.2,0.7c9.2,2.3,15.3,7.9,17.7,17c2,7.7,3.6,15.4,5.3,23.1
		c0.6,2.7,1.3,5.4,2,8.2c0.1,0.3,0,0.6,0,1.1c-0.5,0.1-1.1,0.3-1.6,0.3c-12.8,0-25.6-0.1-38.4-0.2c-2.1,0-2.1-0.1-2.5-2.3
		c-1.2-8.3-2.4-16.6-3.8-24.9c-0.9-5.5-4.4-9.1-10.3-9.8c-3.6-0.5-7.3-0.2-11-0.3c-1.2,0-1.7,0.6-1.7,1.8c0,1.8,0,3.7,0,5.5
		c0,9,0,17.9,0,26.9c0,0.6,0,1.1,0,1.7c0,1-0.5,1.5-1.5,1.5c-0.9,0-1.8,0-2.6,0c-10.7,0-21.4,0-32.2,0c-0.9,0-1.8,0-2.6,0
		c-1,0-1.5-0.5-1.5-1.5c0-1.1,0-2.2,0-3.4c0-10,0-20,0-30c0-21.5,0.1-43,0.1-64.6c0-1.6-0.1-3.2,0-4.8c0-2.4,0.1-2.5,2.4-2.5
		c5,0,9.9,0,14.9,0c5.5,0,11,0.1,16.6,0.1c12.1,0,24.2-0.1,36.2,0.1c6.8,0.1,13.6,1.1,20,3.6c5.7,2.2,10.7,5.5,13.6,11.1
		c5.7,10.9,4.4,27-8.1,35.5c-3.3,2.2-6.8,3.8-10.7,4.7c-0.6,0.1-1.2,0.3-1.8,0.5C715,290.1,714.9,290.3,714.4,290.9z M670.6,269.1
		C670.6,269.1,670.6,269.1,670.6,269.1c-0.1,3.1-0.1,6.2-0.1,9.4c0,2.6,0.3,2.8,2.7,2.8c3.2,0.1,6.4,0.2,9.6,0
		c2.2-0.1,4.5-0.5,6.6-1c5.3-1.3,8.5-5.4,8.6-10.7c0.1-5.5-2.8-9.3-8.4-10.8c-0.8-0.2-1.6-0.4-2.3-0.5c-5-1-10-0.4-15.1-0.5
		c-1.4,0-1.7,0.4-1.7,2C670.6,262.9,670.6,266,670.6,269.1z"/>
	<path class="st0" d="M537.4,290.8c0.7,0.2,1.5,0.5,2.2,0.7c2.9,0.5,5.5,1.8,7.9,3.3c5.2,3.3,8.3,8.1,9.8,14c1.7,7,3.2,14,4.8,21
		c0.8,3.6,1.6,7.1,2.4,10.7c-1.9,0.7-36.5,0.9-42,0.2c-0.2-0.9-0.6-1.8-0.7-2.8c-1.1-7.4-2.2-14.7-3.1-22.1
		c-1-7.7-4.7-11.5-12.4-12.2c-3-0.3-6.1-0.1-9.1-0.1c-1.5,0-1.8,0.4-2,1.9c-0.1,0.7,0,1.4,0,2.2c0,9.8,0,19.7,0,29.5
		c0,1.2,0,2.4,0,3.4c-2.3,0.6-37.7,0.6-40.3,0c-0.2-35.3,0.1-70.7,0-106.3c1.2-0.1,2.2-0.1,3.1-0.1c14.5,0.1,28.9,0.1,43.4,0.2
		c8.6,0.1,17.3,0,25.9,0.3c6.6,0.2,13.1,1.2,19.1,3.9c7.8,3.5,13.2,9.2,14.7,18c1,5.9,0.7,11.8-1.7,17.4c-2.4,5.5-6.4,9.5-11.6,12.3
		c-2.8,1.5-5.6,2.7-8.7,3.3c-0.6,0.1-1.1,0.5-1.7,0.7C537.4,290.4,537.4,290.6,537.4,290.8z M493.4,269
		C493.4,269,493.4,269,493.4,269c0,3.3,0,6.5,0,9.8c0,2,0.3,2.3,2.2,2.3c3.8,0,7.5,0.1,11.3,0c2.7-0.1,5.4-0.6,7.9-1.8
		c4-2,6-5.3,6.1-9.8c0.1-4.5-1.6-7.9-5.7-9.9c-1.2-0.6-2.5-1-3.8-1.3c-5.4-1.2-10.8-0.6-16.2-0.7c-1.3,0-1.6,0.7-1.6,1.8
		C493.4,262.6,493.4,265.8,493.4,269z"/>
	<path class="st0" d="M821.6,234.6c2.3,0,4.2,0,6.1,0c10.6,0,21.1,0,31.7,0c0.6,0,1.1,0,1.7,0c0.8,0,1.2,0.5,1.2,1.2
		c0,0.5,0,1,0,1.4c-0.1,8.7-0.2,17.4-0.2,26.1c0,11.8,0,23.7,0,35.5c0,5.8-0.6,11.5-2.5,17c-2.5,7.2-6.8,13-13,17.4
		c-6.2,4.4-13.1,6.9-20.5,8.3c-11.8,2.2-23.7,2.1-35.5-0.2c-7.8-1.5-15.2-4.3-21.5-9.4c-6.9-5.6-11.1-12.8-12.8-21.6
		c-0.9-4.8-1.2-9.7-1.2-14.5c0-19,0-37.9,0-56.9c0-1.3,0.2-2.7,0.3-3.9c1.8-0.6,36.7-0.8,40.1-0.2c0.1,0.8,0.2,1.8,0.2,2.7
		c0,20.1-0.1,40.1-0.1,60.2c0,2.9,0.3,5.8,0.9,8.5c2.3,9.8,11,11.5,17.7,8.7c3.1-1.3,4.9-3.9,5.8-7c0.8-2.4,1.1-5,1.5-7.5
		c0.2-1.5,0.1-3,0.1-4.6c0-19.6,0-39.2,0-58.8C821.6,236.5,821.6,235.8,821.6,234.6z"/>
	<path class="st0" d="M318.7,340.5c0.3-1.1,0.5-2,0.8-2.9c3.3-9.5,6.7-19,10-28.5c3.9-11,7.8-22,11.7-33c4.7-13.3,9.4-26.7,14-40.1
		c0.7-1.9,0.8-2.1,2.9-2.1c16.9,0,33.8,0.1,50.6,0.1c2.1,0,2.1,0,2.9,2.1c2.8,7.8,5.5,15.7,8.3,23.5c5.9,16.6,11.7,33.1,17.6,49.7
		c3.5,9.9,7,19.9,10.6,29.8c0.1,0.4,0.2,0.7,0.3,1c-0.1,0.2-0.1,0.3-0.2,0.3c-0.1,0.1-0.1,0.1-0.2,0.1c-0.3,0-0.6,0.1-0.9,0.1
		c-13.5,0-27,0-40.7,0c-0.4-0.9-0.8-1.8-1.1-2.7c-2-6.2-3.9-12.3-5.9-18.5c-0.6-2-0.8-2.1-2.9-2.1c-9.4,0-18.7,0-28.1,0
		c-2.1,0-2.2,0.1-2.9,2.1c-2.1,6.5-4.1,12.9-6.1,19.5c-0.4,1.2-0.9,1.7-2.2,1.7c-12.5,0-25,0-37.4,0
		C319.5,340.7,319.3,340.6,318.7,340.5z M394,292.7c-0.3-1-0.4-1.9-0.7-2.8c-1.2-3.8-2.5-7.6-3.8-11.4c-2-5.9-4-11.8-5.9-17.7
		c-0.2-0.7-0.3-1.5-1.6-1.3c-0.3,0.8-0.8,1.8-1.1,2.7c-2.6,7.9-5.2,15.8-7.9,23.7c-0.6,1.7-1.1,3.3-1.6,5c-0.5,1.5-0.1,2,1.5,2.2
		c0.2,0,0.3,0,0.5,0c6.2,0,12.5,0,18.7,0C392.6,293.1,393.1,292.9,394,292.7z"/>
	<path class="st0" d="M314.9,316.1c0,8.4,0,16.3,0,24.2c-2,0.6-89.2,0.7-93.9,0.1c-0.3-17.7,0-35.4,0-53.1c0-17.7,0-35.3,0-52.9
		c2.2-0.6,90-0.7,92.7-0.1c0.5,1.7,0.6,21.7,0.1,24.3c-0.9,0.1-1.8,0.2-2.7,0.2c-15.4-0.1-30.9-0.1-46.3-0.2c-3.2,0-3.2,0-3.3,3.2
		c0,3.5-0.1,7,0,10.6c0,2.2,0.2,2.4,2.5,2.4c14.7,0,29.4,0,44.1,0c1,0,2.1,0,3.3,0c0.1,1,0.2,1.8,0.2,2.5c0,6.2,0,12.5,0,18.7
		c0,2.6-0.1,2.7-2.7,2.7c-14.3,0-28.6,0-42.9,0c-4.6,0-4.6-0.5-4.6,4.6c0,3.6,0,7.2,0.1,10.8c0,1.7,0.3,1.9,2,2c1.6,0,3.2,0,4.8,0
		c14.2,0,28.5,0.1,42.7,0.1C312.3,316.1,313.4,316.1,314.9,316.1z"/>
	<path class="st0" d="M612.2,340.9c-11.2,0-21.8,0-32.9,0c0-1.9,0-3.6,0-5.3c0-6.5,0.1-13.1,0.1-19.6c0-3.7-0.1-3.8,3.6-3.8
		c8.4,0,16.8,0,25.2,0c1.2,0,2.4,0,3.8,0c0.5,5,0.2,9.7,0.2,14.5C612.2,331.3,612.2,335.9,612.2,340.9z"/>
	<path fill="#ffffff" d="M670.6,269.1c0-3.1,0-6.2,0-9.4c0-1.6,0.2-2,1.7-2c5,0,10.1-0.6,15.1,0.5c0.8,0.2,1.6,0.3,2.3,0.5
		c5.5,1.5,8.5,5.3,8.4,10.8c-0.1,5.3-3.3,9.5-8.6,10.7c-2.2,0.5-4.4,0.9-6.6,1c-3.2,0.2-6.4,0.1-9.6,0c-2.5-0.1-2.7-0.3-2.7-2.8
		C670.5,275.4,670.5,272.2,670.6,269.1C670.6,269.1,670.6,269.1,670.6,269.1z"/>
	<path fill="#ffffff" d="M493.4,269c0-3.2,0-6.4,0-9.6c0-1.1,0.4-1.9,1.6-1.8c5.4,0.1,10.9-0.5,16.2,0.7c1.3,0.3,2.6,0.7,3.8,1.3
		c4.1,2,5.8,5.4,5.7,9.9c-0.1,4.5-2,7.8-6.1,9.8c-2.5,1.2-5.2,1.7-7.9,1.8c-3.7,0.1-7.5,0.1-11.3,0c-1.9,0-2.2-0.3-2.2-2.3
		C493.4,275.5,493.4,272.2,493.4,269C493.4,269,493.4,269,493.4,269z"/>
	<path fill="#ffffff" d="M394,292.7c-0.8,0.2-1.3,0.3-1.9,0.3c-6.2,0-12.5,0-18.7,0c-0.2,0-0.3,0-0.5,0c-1.6-0.1-2-0.7-1.5-2.2
		c0.5-1.7,1.1-3.3,1.6-5c2.6-7.9,5.2-15.8,7.9-23.7c0.3-1,0.8-1.9,1.1-2.7c1.2-0.1,1.3,0.7,1.6,1.3c2,5.9,4,11.8,5.9,17.7
		c1.3,3.8,2.5,7.6,3.8,11.4C393.5,290.8,393.7,291.7,394,292.7z"/>
</g>
</svg>
