<?xml version="1.0" encoding="utf-8"?>
<!-- Generator: Adobe Illustrator 21.1.0, SVG Export Plug-In . SVG Version: 6.00 Build 0)  -->
<svg version="1.1" id="Слой_1" xmlns="http://www.w3.org/2000/svg" xmlns:xlink="http://www.w3.org/1999/xlink" x="0px" y="0px"
	 viewBox="0 0 309 192" style="enable-background:new 0 0 309 192;" xml:space="preserve">
<style type="text/css">
	.st0{fill:#F9DA5A;}
</style>
<polygon class="st0" points="160.7,163 95,144.9 29.3,163 29.3,19.3 160.7,19.3 "/>
<g id="Слой_2">
</g>
<g>
	<path d="M77.3,57.5C77.3,57.5,77.3,57.5,77.3,57.5L77.3,57.5C77.4,57.5,77.4,57.5,77.3,57.5C77.4,57.4,77.4,57.4,77.3,57.5
		C77.3,57.5,77.3,57.5,77.3,57.5z"/>
	<path d="M212.5,91.6c0-5.1,0-10,0-15.1c0.6,0,1.2,0,1.8,0c0,4.5,0,8.9,0,13.5c0.8,0,1.4,0,2.2,0c0-4.5,0-9,0-13.5c0.7,0,1.3,0,2,0
		c0,4.5,0,9,0,13.5c0.8,0,1.4,0,2.2,0c0-4.5,0-9,0-13.5c0.7,0,1.3,0,1.9,0c0,5,0,10,0,15.1C219.3,91.6,216,91.6,212.5,91.6z"/>
	<path d="M200.7,101.4c0,3,0,5.9,0,8.8c0,1.1,0,2.2,0,3.2c0,0.5-0.2,1.2,0.7,1.2c0.1,0,0.2,0.4,0.3,0.6c0,1,0,1.9,0,2.9
		c-0.7,0-1.3,0-1.9,0c0-0.6-0.1-1.2-0.1-1.9c-1.5,0-3,0-4.6,0c0,0.6-0.1,1.3-0.1,1.9c-0.6,0-1.1,0-1.8,0c0-1.1,0-2,0-3
		c0-0.1,0-0.3,0.1-0.3c1.4-0.5,0.8-1.7,0.8-2.6c0.1-3,0-6,0-9c0-1.4,0.4-1.8,1.8-1.8C197.4,101.4,198.9,101.4,200.7,101.4z
		 M196.1,103.1c0,3.9,0,7.6,0,11.4c0.9,0,1.6,0,2.5,0c0-3.8,0-7.6,0-11.4C197.8,103.1,197,103.1,196.1,103.1z"/>
	<path d="M199.3,89.9c-0.8-2.2-1.4-4.2-2.1-6.1c-0.1,0-0.1,0-0.2,0c0,2.6,0,5.1,0,7.7c-0.7,0-1.2,0-1.7,0c0-5,0-10,0-15
		c0.7-0.3,1.2-0.1,1.4,0.8c0.6,2.2,1.4,4.3,2.1,6.5c0.1,0.4,0.3,0.8,0.5,1.5c0.9-2.9,1.8-5.4,2.6-7.9c0.2-0.8,0.6-1.2,1.5-0.8
		c0,5,0,9.9,0,15c-0.6,0-1.1,0-1.7,0c0-2.7,0-5.4,0-8c-0.1,0-0.2,0-0.3-0.1C200.8,85.5,200.1,87.6,199.3,89.9z"/>
	<path d="M209.6,101.5c0,4.9,0,9.7,0,14.6c-0.6,0-1.2,0-1.9,0c0-2.9,0-5.8,0-8.7c-0.1,0-0.2,0-0.2,0c-0.4,1.5-0.9,2.9-1.3,4.4
		c-0.3,1-0.7,2.1-0.9,3.1c-0.3,1.3-1,1.6-2.2,1.2c0-4.8,0-9.6,0-14.5c0.6,0,1.2,0,1.9,0c0,2.8,0,5.7,0,8.5c0.1,0,0.2,0,0.3,0.1
		c0.8-2.8,1.7-5.7,2.5-8.6C208.3,101.5,208.9,101.5,209.6,101.5z"/>
	<path d="M269.9,116.1c0-5,0-9.7,0-14.7c1.8,0,3.7-0.1,5.5,0.1c0.4,0,0.9,0.8,0.9,1.3c0.1,1.2,0.2,2.4,0,3.6c-0.1,0.7-0.7,1.3-1.1,2
		c1.2,0.7,1.4,2,1.3,3.4c-0.1,0.8,0,1.6,0,2.4c0,1.4-0.4,1.8-1.7,1.9C273.2,116.2,271.6,116.1,269.9,116.1z M274.5,114.6
		c0.1-0.1,0.1-0.2,0.1-0.3c0-0.9,0-1.8,0-2.8c0-2.1-0.5-2.5-2.8-2.1c0,1.7,0,3.4,0,5.2C272.9,114.6,273.7,114.6,274.5,114.6z
		 M271.9,107.6c1-0.1,2.2,0.4,2.4-1c0.2-1.2,0-2.4,0-3.6c-0.9,0-1.6,0-2.5,0C271.9,104.6,271.9,106.1,271.9,107.6z"/>
	<path d="M229.5,85.8c-1,0-1.9,0-2.9,0c0,1.9,0,3.8,0,5.8c-0.7,0-1.2,0.1-1.8,0.1c0-0.4-0.1-0.8-0.1-1.1c0-4.1,0-8.2,0-12.4
		c0-1.4,0.3-1.7,1.7-1.7c1.1,0,2.2,0,3.2,0c1.3,0,1.8,0.4,1.8,1.8c0,2.4,0,4.8,0,7.2c0,2,0,4,0,6.1c-0.7,0-1.2,0-2,0
		C229.5,89.7,229.5,87.8,229.5,85.8z M226.7,78.2c0,2,0,3.9,0,5.8c0.9,0,1.8,0,2.6,0c0-2,0-3.9,0-5.8
		C228.4,78.2,227.6,78.2,226.7,78.2z"/>
	<path d="M220.1,108.8c0-1.8,0-3.7,0-5.5c0-1.3,0.5-1.8,1.8-1.9c1.1,0,2.2,0,3.4,0c1,0,1.5,0.5,1.5,1.4c0,4,0,8,0,12
		c0,0.9-0.5,1.3-1.4,1.3c-1.3,0-2.6,0-3.8,0c-1,0-1.4-0.5-1.4-1.5C220.1,112.7,220.1,110.7,220.1,108.8z M222.2,114.5
		c0.9,0,1.7,0,2.5,0c0-3.8,0-7.6,0-11.4c-0.9,0-1.7,0-2.5,0C222.2,106.9,222.2,110.7,222.2,114.5z"/>
	<path d="M203.3,52.8c0,5.2,0,10.2,0,15.2c-0.6,0-1.2,0-1.9,0c0-4.5,0-9,0-13.6c-1,0-1.9,0-2.9,0c0,0.4-0.1,0.8-0.1,1.3
		c0,3.4,0,6.8,0,10.2c0,2.1-0.1,2.2-2.2,2.2c-0.3,0-0.7,0-1.1-0.1c0-0.5,0-0.9,0-1.4c0.4-0.1,0.8-0.1,1.3-0.2c0-0.4,0.1-0.8,0.1-1.3
		c0-3.5,0-7,0-10.4c0-1.6,0.4-2,2-2C200,52.8,201.6,52.8,203.3,52.8z"/>
	<path d="M243.8,108.9c0,1.9,0,3.8,0,5.6c0,1.3-0.3,1.6-1.6,1.6c-1.2,0-2.3,0-3.5,0c-1.1,0-1.5-0.5-1.5-1.5c0-3.9,0-7.7,0-11.6
		c0-1,0.6-1.6,1.6-1.6c1.1,0,2.2,0,3.4,0c1.3,0,1.7,0.4,1.7,1.7C243.8,105,243.8,107,243.8,108.9z M241.7,114.5c0-3.8,0-7.6,0-11.4
		c-0.9,0-1.7,0-2.6,0c0,3.8,0,7.6,0,11.4C240,114.5,240.8,114.5,241.7,114.5z"/>
	<path d="M248.9,91.6c-0.6,0-1.2,0-1.9,0c0-2.3,0-4.6,0-6.9c-1,0-1.8,0-2.8,0c0,2.3,0,4.6,0,6.9c-0.7,0-1.2,0-1.9,0c0-5,0-10,0-15.1
		c0.6,0,1.1,0,1.8,0c0,2.1,0,4.2,0,6.3c1,0,1.8,0,2.8,0c0-2.1,0-4.2,0-6.3c0.7,0,1.3,0,1.9,0C248.9,81.5,248.9,86.5,248.9,91.6z"/>
	<path d="M238.1,76.5c0.8,0,1.3,0,1.9,0c0,5,0,10,0,15.1c-0.6,0-1.2,0-1.9,0c0-2.3,0-4.5,0-6.9c-1,0-1.8,0-2.8,0c0,2.2,0,4.5,0,6.9
		c-0.7,0-1.3,0-1.9,0c0-5,0-10,0-15c0.6,0,1.1,0,1.8,0c0,2.1,0,4.1,0,6.3c1,0,1.8,0,2.8,0C238.1,80.8,238.1,78.7,238.1,76.5z"/>
	<path d="M220.3,52.9c0,0.5,0,0.9,0,1.4c-1.5,0-2.9,0-4.4,0c0,1.5,0,2.9,0,4.5c1,0,1.9,0,2.9,0c1.4,0,1.9,0.4,1.9,1.8
		c0.1,2,0,3.9,0,5.9c0,1-0.5,1.6-1.5,1.6c-1.7,0-3.4,0-5.2,0c0-5.1,0-10.1,0-15.2C216.1,52.9,218.1,52.9,220.3,52.9z M215.9,66.5
		c1,0,1.9,0,2.8,0c0-2,0-4,0-5.9c-1,0-1.9,0-2.8,0C215.9,62.6,215.9,64.6,215.9,66.5z"/>
	<path d="M186.7,52.9c0.6,0,1.1,0,1.8,0c0,1.8,0,3.5,0,5.3c0.1,0,0.2,0.1,0.3,0.1c0.2-0.4,0.5-0.8,0.7-1.2c0.5-1,1.1-1.9,1.5-3
		c0.5-1.3,1.4-1.5,2.7-1.1c-1.1,2-2.2,4.1-3.3,6c-0.5,0.8-0.5,1.5,0,2.3c1.3,2.2,2.5,4.4,3.7,6.7c-1.8,0.5-2,0.4-2.8-1
		c-0.8-1.6-1.7-3.2-2.8-4.8c0,2,0,3.9,0,5.9c-0.7,0-1.2,0-1.8,0C186.7,63.1,186.7,58,186.7,52.9z"/>
	<path d="M218.1,116.1c-0.6,0-1.1,0-1.8,0c0-2.2,0-4.4,0-6.6c-1,0-1.8,0-2.7,0c0,2.2,0,4.4,0,6.6c-0.6,0-1.1,0-1.7,0
		c0-4.8,0-9.6,0-14.6c0.5,0,1,0,1.7,0c0,2,0,4,0,6.1c1,0,1.8,0,2.7,0c0-2.1,0-4.1,0-6.1c0.7,0,1.2,0,1.9,0
		C218.1,106.3,218.1,111.2,218.1,116.1z"/>
	<path d="M234.9,101.5c0,0.4,0,0.8,0,1.4c-1.4,0-2.8,0-4.3,0c0,1.5,0,2.8,0,4.3c1,0,2,0,3,0c1.1,0,1.6,0.5,1.6,1.6c0,2,0,3.9,0,5.9
		c0,0.9-0.5,1.4-1.4,1.5c-1.7,0-3.3,0-5.1,0c0-4.9,0-9.7,0-14.6C230.8,101.5,232.8,101.5,234.9,101.5z M230.7,114.6
		c0.9,0,1.8,0,2.7,0c0-1.9,0-3.8,0-5.7c-0.9,0-1.8,0-2.7,0C230.7,110.8,230.7,112.7,230.7,114.6z"/>
	<path d="M251.2,76.5c0.6,0,1.1,0,1.8,0c0,2,0,3.9,0,6c1.1,0,2.1,0,3.1,0c1.3,0,1.8,0.5,1.8,1.8c0,1.8,0,3.6,0,5.4
		c0,1.5-0.5,1.9-2,1.9c-1.5,0-3.1,0-4.7,0C251.2,86.5,251.2,81.6,251.2,76.5z M255.6,90c0-2,0-3.8,0-5.7c-0.9,0-1.7,0-2.6,0
		c0,1.9,0,3.8,0,5.7C253.9,90,254.8,90,255.6,90z"/>
	<path d="M188.5,90.1c0.9,0,1.7,0,2.7,0c0-1.2,0-2.4,0-3.8c0.7,0,1.3,0,2,0c0,1.4,0.1,2.9-0.1,4.3c0,0.4-0.8,0.9-1.3,1
		c-1.3,0.1-2.7,0.1-4.1,0.1c-0.8,0-1.3-0.5-1.3-1.3c0-4.2,0-8.3,0-12.5c0-0.9,0.6-1.4,1.5-1.4c1.2,0,2.3,0,3.5,0
		c0.9,0,1.4,0.5,1.5,1.4c0.1,1,0,2.1,0,3.2c-0.7,0-1.2,0-1.9,0c0-0.9,0-1.8,0-2.8c-0.9,0-1.7,0-2.6,0
		C188.5,82.2,188.5,86,188.5,90.1z"/>
	<path d="M260.6,105.9c-0.7,0-1.2,0-1.8,0c0-0.9-0.1-1.8-0.1-2.8c-0.8,0-1.6,0-2.5,0c0,3.8,0,7.6,0,11.5c0.8,0,1.7,0,2.6,0
		c0-1.2,0-2.4,0-3.7c0.7,0,1.3,0,2,0c0,1.4,0.1,2.9-0.1,4.3c0,0.4-0.8,0.9-1.3,1c-1.3,0.1-2.6,0.1-3.9,0c-0.8,0-1.2-0.5-1.2-1.3
		c0-4,0-8.1,0-12.1c0-0.9,0.5-1.4,1.5-1.4c1.1,0,2.2,0,3.2,0c1,0,1.6,0.5,1.7,1.5C260.7,103.8,260.6,104.8,260.6,105.9z"/>
	<g>
		<g>
			<path d="M98,79.3c0-7,0-13.9,0-20.9c0-0.8,0.2-1.3,0.8-1.9c1.2-1.1,2.4-2.3,3.7-3.6c-0.4-0.1-0.5-0.1-0.7-0.1
				c-6.4,0-12.9,0-19.3,0c-0.3,0-0.7,0.1-0.9,0.3c-1.4,1.4-2.8,2.9-4.2,4.3c3.2,0,6.5,0,9.6,0c-1.3,1.4-2.4,2.7-3.7,3.9
				c-0.7,0.7-1,1.3-1,2.3c0,15.2,0,30.3,0,45.5c0,0.5,0,0.9,0,1.5c-1.2,0-2.2,0.1-3.2,0c-3.4-0.6-6,0.6-8.1,3.3
				c-0.5,0.7-1.2,1.3-2.1,2.1c0.8,0,1.2,0,1.7,0c5.9,0,11.8,0,17.6,0c1.1,0,1.9-0.3,2.6-1c1.4-1.4,2.8-2.8,4.3-4.4
				c-4.3,0-8.3,0-12.4,0c1.4-1.4,2.6-2.8,4-4c0.7-0.6,0.9-1.3,0.9-2.2c0-15.2,0-30.3,0-45.5c0-0.5,0-0.9,0-1.5c3.3,0,6.4,0,9.4,0
				c-1.2,1.3-2.4,2.7-3.7,4c-0.6,0.6-0.9,1.2-0.9,2.1c0,14.4,0,28.8,0,43.2c0,0.4,0,0.8,0.1,1.5c1.7-1.7,3.2-3,4.7-4.6
				c0.4-0.4,0.7-1.2,0.7-1.8c0.1-4.4,0-8.8,0.1-13.2c0-0.6,0.3-1.3,0.7-1.7c0.9-1,2-1.8,3.2-2.9c-1.2-1.1-2.2-2.1-3.2-2.9
				C98.2,80.7,98,80.1,98,79.3z"/>
			<path d="M71.3,87.1c0.4,0.4,0.7,1.2,0.7,1.8c0.1,6,0,12,0,18c0,0.4,0,0.8,0.1,1.5c1.6-1.6,3-3,4.5-4.3c0.7-0.6,0.9-1.2,0.9-2.1
				c0-14.4,0-28.8,0-43.2c0-0.4-0.1-0.8-0.1-1.3c-1.5,1.4-3,2.7-4.4,4.1c-0.4,0.4-0.8,1.2-0.8,1.8c-0.1,5.3,0,10.6-0.1,15.9
				c0,0.6-0.3,1.2-0.7,1.6c-0.9,1-2,1.9-3.2,3C69.4,85.2,70.4,86.1,71.3,87.1z"/>
		</g>
		<path d="M62.5,111.2C62.5,111.2,62.5,111.2,62.5,111.2C62.5,111.2,62.5,111.2,62.5,111.2C62.5,111.2,62.5,111.2,62.5,111.2
			C62.5,111.2,62.5,111.2,62.5,111.2L62.5,111.2z"/>
		<g>
			<path d="M58.5,107.1c0-16,0-32,0-48c0-0.4,0-0.7,0-1.1c1.2,1.1,2.3,2.2,3.2,3.4c0.4,0.5,0.7,1.3,0.7,1.9c0.1,4.4,0,8.9,0,13.3
				c0,0.4,0,0.8,0,1.6c1.9-1.8,3.5-3.3,5-4.8c0.3-0.3,0.4-0.8,0.4-1.2c0-4.4,0-8.8,0-13.2c0-0.4,0-0.9-0.3-1.1
				c-1.4-1.7-2.9-3.4-4.4-5.1c-0.2,0.2-0.4,0.3-0.6,0.4c-3,2.9-5.9,5.7-8.8,8.6c-0.4,0.4-0.6,1-0.6,1.6c0,5.3,0,10.6-0.1,16
				c0,0.6-0.3,1.3-0.7,1.7c-0.9,1-2,1.9-3.2,3c1.1,1,2.1,2,3.1,2.8c0.7,0.6,0.9,1.2,0.9,2.1c0,7.4,0,14.7,0,22.1
				c0,0.5,0.1,1.1,0.4,1.4c1.4,1.3,2.9,2.4,4.4,3.7c1.6-1.7,3.1-3.3,4.6-4.9c-1-0.8-2.1-1.6-3.1-2.3
				C58.7,108.4,58.5,107.9,58.5,107.1z"/>
			<path d="M67.9,90c-1.8,1.7-3.5,3.3-5,4.9c-0.3,0.3-0.4,0.9-0.5,1.4c0,3.1,0,6.2,0,9.2c0,1.9,0.1,3.8,0.1,5.7
				c1.8-1.6,3.6-3.2,5.3-4.9c0.2-0.2,0.2-0.7,0.2-1.1c0-4.7,0-9.4,0-14.1C68,90.8,68,90.5,67.9,90z"/>
		</g>
		<path d="M120.8,105.8c0-15.2,0.1-30.4,0-45.6c0-2.1,0.6-3.6,2.2-4.9c0.8-0.7,1.6-1.5,2.5-2.4c-0.5-0.1-0.6-0.1-0.8-0.1
			c-3.6,0-7.2,0-10.8,0c-0.5,0-1.1,0.3-1.4,0.7c-2.8,2.7-5.7,5.4-8.4,8.2c-0.4,0.4-0.7,1.2-0.7,1.7c-0.1,4.6,0,9.1-0.1,13.7
			c0,0.8,0.3,1.4,0.8,2c1.7,1.6,3.3,3.3,5,4.9c-1.7,1.8-3.4,3.5-5,5.3c-0.4,0.5-0.8,1.2-0.8,1.9c-0.1,6,0,12.1,0,18.1
			c0,0.4,0,0.9,0,1.5c-2.3-0.7-3.3,1-4.6,2.2c-0.7,0.7-1.4,1.4-2.2,2.1c-0.3,0.3-0.6,0.6-1,1.1c4.2,0,8,0,11.8,0
			c0.3,0,0.6-0.1,0.8-0.2c1.6-1.7,3.2-3.4,4.9-5.2c-3.1,0-6.1,0-9.4,0c1.8-1.9,3.4-3.5,4.9-5.2c0.4-0.5,0.7-1.2,0.7-1.9
			c0.1-6.2,0-12.3,0.1-18.5c0-0.6,0.3-1.2,0.7-1.6c1.2-1.3,2.6-2.6,4.1-4.1c-1.7-1.6-3.3-3-4.8-4.6c-0.4-0.4-0.7-1.1-0.7-1.6
			c-0.1-4.8,0-9.7,0-14.5c0-0.3,0-0.7,0.1-1.1c3.9,0,7.6,0,11.2,0c-1.2,1.3-2.5,2.7-3.8,4.1c-0.4,0.5-0.8,1.2-0.8,1.8
			c-0.1,3.6,0,7.2,0,10.8c0,12.2,0,24.4,0,36.6c0,0.5,0,1.2,0.3,1.5c1.4,1.3,3,2.5,4.4,3.7c1.8-1.9,3.5-3.7,5.2-5.5
			c-1.1-0.8-2.2-1.8-3.4-2.6C121.1,107.4,120.8,106.8,120.8,105.8z"/>
		<path d="M126.6,63.5c-0.1,5.3-0.1,10.6,0,15.8c0,0.8-0.2,1.4-0.8,1.9c-1,0.9-2,1.8-3.2,2.9c1.1,1,2,1.9,2.9,2.7
			c0.8,0.7,1.1,1.4,1.1,2.5c0,7.3,0,14.6,0,22c0,0.4,0,1.1,0.3,1.3c1.4,1.3,2.9,2.4,4.5,3.7c1.8-1.9,3.5-3.6,5.3-5.5
			c-1.2-0.9-2.4-1.9-3.7-2.8c-0.8-0.5-1-1.2-1-2.1c0-15.6,0-31.2,0-46.8c0-0.5-0.1-1-0.1-1.5c-1.5,1.4-3,2.7-4.4,4.1
			C126.9,62.1,126.6,62.8,126.6,63.5z"/>
		<path d="M131.8,57.5C131.8,57.5,131.8,57.5,131.8,57.5L131.8,57.5C131.8,57.5,131.8,57.5,131.8,57.5z"/>
		<path d="M131.8,57.5C131.8,57.5,131.8,57.5,131.8,57.5C131.8,57.4,131.8,57.4,131.8,57.5C131.8,57.4,131.8,57.5,131.8,57.5z"/>
		<path d="M147.2,52.7c-3.4,0-6.8,0-10.2,0c-0.3,0-0.6,0.1-0.8,0.2c-1.5,1.5-3,3-4.4,4.5c3.4,0,6.8,0,10.2,0c0.4,0,1,0,1.3-0.2
			c1.4-1.4,2.8-2.9,4.2-4.4C147.5,52.8,147.4,52.7,147.2,52.7z"/>
	</g>
	<path d="M262.8,76.5c2-0.2,2-0.2,2.6,1.5c0.4,1.2,0.8,2.3,1.3,3.8c0.5-1.5,0.9-2.6,1.2-3.8c0.5-1.7,0.5-1.7,2.5-1.5
		c-0.7,2-1.3,3.9-2.1,5.8c-0.5,1.1-0.4,2.1,0,3.2c0.8,1.9,1.4,3.9,2.1,5.8c-1.6,0.5-1.8,0.4-2.3-1.1c-0.4-1.3-0.9-2.7-1.6-4.1
		c-0.4,1.3-0.8,2.5-1.2,3.8c-0.5,1.7-0.5,1.7-2.5,1.4c0.6-1.7,1.1-3.3,1.8-4.9c0.9-1.8,0.9-3.5,0-5.3
		C263.9,79.8,263.4,78.2,262.8,76.5z"/>
	<path d="M247.7,110.5c0,2,0,3.8,0,5.6c-0.6,0-1.2,0-1.8,0c0-4.8,0-9.7,0-14.6c1.8,0,3.6-0.1,5.4,0.1c0.4,0,1,0.8,1,1.2
		c0.1,2.1,0.1,4.2,0.1,6.4c0,1-0.7,1.3-1.6,1.4C249.8,110.5,248.9,110.5,247.7,110.5z M250.4,108.7c0-1.9,0-3.8,0-5.7
		c-0.9,0-1.7,0-2.6,0c0,1.9,0,3.8,0,5.7C248.7,108.7,249.4,108.7,250.4,108.7z"/>
	<path d="M205.8,68c0-0.5,0-0.9,0-1.4c0.5,0,1-0.1,1.8-0.1c0-0.9,0.2-1.9,0-2.8c-0.8-3.6-1.8-7.1-2.7-10.7c1.7-0.6,2-0.4,2.3,1.2
		c0.5,2.2,1,4.4,1.7,6.7c0.5-2.2,1-4.4,1.5-6.7c0.3-1.6,0.4-1.6,2.2-1.3c-0.2,0.8-0.4,1.5-0.5,2.3c-0.9,3.5-1.7,7-2.6,10.5
		C208.9,68,208.4,68.4,205.8,68z"/>
	<path d="M205.4,76.5c1.7,0,3.4,0,5.1,0c0,0.5,0,1,0,1.6c-1,0-2.1,0-3.2,0c0,1.7,0,3.2,0,4.8c1,0,1.9,0,3,0c0,0.6,0,1.1,0,1.7
		c-1,0-1.9,0-3,0c0,1.9,0,3.6,0,5.5c1,0,2.1,0,3.2,0c0,0.6,0,1,0,1.5c-1.7,0-3.4,0-5.1,0C205.4,86.5,205.4,81.6,205.4,76.5z"/>
	<path d="M191.8,101.5c0,0.5,0,0.9,0,1.5c-1,0-2,0-3,0c0,1.6,0,3,0,4.6c0.9,0,1.8,0,2.8,0c0,0.6,0.1,1,0.1,1.6c-0.9,0-1.8,0-2.8,0
		c0,1.8,0,3.5,0,5.3c0.9,0,1.9,0,3,0c0,0.5,0,1,0.1,1.5c-1.7,0-3.3,0-5,0c0-4.8,0-9.6,0-14.5C188.4,101.5,190.1,101.5,191.8,101.5z"
		/>
	<path d="M262.1,103c0-0.5,0-1,0-1.5c2.1,0,4.1,0,6.2,0c0,0.5,0,0.9,0,1.4c-0.7,0-1.4,0.1-2.2,0.1c0,4.3,0,8.6,0,13
		c-0.7,0-1.2,0-1.9,0c0-4.3,0-8.6,0-13C263.6,103.1,262.9,103,262.1,103z"/>
	<path d="M259.3,76.5c0.6,0,1.1,0,1.7,0c0,5,0,10,0,15.1c-0.6,0-1.1,0-1.7,0C259.3,86.5,259.3,81.6,259.3,76.5z"/>
</g>
</svg>
