<?xml version="1.0" encoding="utf-8"?>
<!-- Generator: Adobe Illustrator 21.1.0, SVG Export Plug-In . SVG Version: 6.00 Build 0)  -->
<svg version="1.1" id="Слой_1" xmlns="http://www.w3.org/2000/svg" xmlns:xlink="http://www.w3.org/1999/xlink" x="0px" y="0px"
	 viewBox="0 0 5654.3 2593" style="enable-background:new 0 0 5654.3 2593;" xml:space="preserve">
<style type="text/css">
	.st0{fill-rule:evenodd;clip-rule:evenodd;fill:#303030;}
</style>
<path class="st0" d="M3951.3,659.6c0,62.2-4.8,106.7-4.8,169.4v1239.3h469.6c29.4,0,35.3-4.8,62.9-4.8v-1370
	c51.7,0,139.9,4.3,181.9-2c55-8.3,256.5,1,292.9,11.4c83.5,23.8,85.5,151.7,29.4,185.1c-21.6,12.9-178.2,19.4-204.2,18.9
	c-34.2-0.6-44-5.1-106.4-5.1h-121c-11.2,0-14.5,3.4-14.5,14.5v440.5h358.2c154.7,0,131.5,180.6,67.8,213
	c-27.8,14.1-205.9,19-253.8,11.7c-42.3-6.4-109.7-2-157.7-2c-11.2,0-14.5,3.4-14.5,14.5v474.4c32.8,0,52-2.5,77.7-4.6l159.5-5.1
	c33.5,0.1,56.4-1.1,83-4.1l159.1-5.5c143.7,1.3,244.4-56,340-163.5c111.9-125.9,100.5-232.6,100.5-378.8
	c0-114.9-62.9-238.5-134.4-325.5c-9.6-11.6-22.8-26.6-30.2-37.6c7.5-10.3,49.2-41.8,89.3-94.7c24.5-32.4,49.1-83.1,62.7-126.1
	c30.4-96.7,25-236.4-3.5-324.5c-15.4-47.6-33.5-90.1-56.1-127.9c-60.4-100.8-143.7-183.9-264.4-205.2c-34.5-6.1-52.2-4.9-89-7.8
	c-51.1-4-112.9-4.6-174.3,0.5c-269.1,22.3-177.9-59.2-444.7,112c-77.1,49.4-150.8,94.3-230.6,142.2c-21.3,12.8-36.9,22.1-56.9,35
	L3951.3,659.6z M3781.9,2068.4c0-32.3-0.2-64.7-0.2-97c0-32.7,5.1-53.8,5-91.8l-4.4-237.7c-3.2-30.1-18.6-14.4-114.7-30.6
	c-183.1-30.7-393.1-121.2-487.7-291.7c-41.9-75.5-46.8-111.8-46.8-195.2c0-101.3,66.5-219.5,136.7-284.5
	c106.7-98.8,253.5-145.9,397.1-164.5c44.3-5.7,98.6,2.9,143.3-1.9c133.7-14.4,170.5-60.9,289.6-131.5
	c32.7-19.4,425.3-265.7,442.1-269.6v-14.5c-137.3,0-903-9.8-1020.8,10.3c-78.2,13.4-157.1,34.4-229.6,65.7L3191,383.4
	c-30.2,18.2-60.6,34.5-89.7,55.6c-144.5,104.7-263.2,234.6-339.3,406.2c-96.6,217.9-82.8,498,44,712.9
	c65.6,111.2,125.1,161.1,207.4,238c78.7,73.6,279.2,175.1,386.1,204.6c39.3,10.8,76.8,20.3,119.1,31L3781.9,2068.4z M2465.1,2116.8
	v150.1c0,19.3,13.7,14.5,48.4,14.5c0-26.5,4.3-28.4,5-53.1c0.6-18.9-0.2-39.2-0.2-58.2l22.3,60c16.6,48.2,22.2,51.3,50.3,51.3
	c27.3,0,38.9-89.3,58.1-111.3c0,21,0.2,42-0.1,63c-0.6,47.9-6.5,48.3,34,48.3c28.2,0,16.2-69.7,15.1-83.2
	c-1.3-15.4,15.1-100.8-15.1-100.8c-64.2,0-58.2-6.8-87.7,76.9l-13.9,34.5c-5.2-22.4-13.5-37.5-21.2-61.1
	c-18.6-57.3-12.1-50.2-75.6-50.2C2473.1,2097.4,2465.1,2105.4,2465.1,2116.8z M4261.1,2126.5v121c0,16.7,3.6,18.7,4.8,33.9
	c83,0,188.8,17.5,188.8-58.1c0-22-10.3-25.3-19.4-38.7c7.3-27.2,9.7,2.1,9.7-38.7c0-63.1-104-48.4-164.6-48.4
	C4265.6,2097.4,4261.1,2111.6,4261.1,2126.5z M4377.3,2170h-62.9v-33.9h58.1c13.1,0,13.3,2.3,24.2,4.8
	C4396.3,2158.6,4394.6,2170,4377.3,2170z M4387,2242.6h-72.6v-38.7h62.9c13.1,0,13.3,2.3,24.2,4.8
	C4401.5,2226.6,4405.8,2242.6,4387,2242.6z M320.5,2126.5v111.3c0,24.3,4.4,21.7,4.8,43.6c77,0,188.8,18,188.8-58.1
	c0-22-10.3-25.3-19.4-38.7c56.4-106.6-105.6-87.1-154.9-87.1C325,2097.4,320.5,2111.6,320.5,2126.5z M436.7,2170h-62.9v-33.9h67.8
	c11.2,0,14.5,3.4,14.5,14.5C456,2162,448,2170,436.7,2170z M446.3,2242.6h-72.6v-38.7h62.9c13.1,0,13.4,2.3,24.2,4.8
	C460.9,2226.6,465.1,2242.6,446.3,2242.6z M3292.9,2174.9l49.3,71.8c26.7,39.9,25.8,34.8,86.3,34.8l4.9-169.5
	c-4.5-21.7-17-14.5-43.6-14.5c-14.6,30.3-9.7,72.2-9.7,116.2l-51.3-74.6c-16.8-25.5-37.3-59.3-84.3-36.8
	c-9.5,9.5-5.2,163.4-4.9,164.7c4.5,21.7,17,14.5,43.6,14.5C3296.5,2253.7,3292.9,2215.2,3292.9,2174.9z M4667.8,2116.8
	c0,190.3-13,164.6,48.4,164.6c2.8-33.2,4.8-15.3,4.8-67.8c52.2,0,51.1,16.1,71.9,44.2c8.5,11.4,8.2,10.4,15.2,23.5h53.3
	c-7.8-33.4-31.9-52.8-48.4-77.5c29.6-15.7,38.7-14.2,38.7-53.3c0-67.5-110.5-53.3-164.6-53.3
	C4675.8,2097.4,4667.8,2105.4,4667.8,2116.8z M4740.4,2179.7c-25.8,0-24.2-0.1-24.2-29c0-19.8,15.2-14.5,53.3-14.5
	c20.6,0,29.5,7.8,33.9,24.2C4791.5,2178,4776.5,2179.7,4740.4,2179.7z M92.9,2281.4h33.9c31.3,0,11.5-43.6,38.7-43.6h72.6
	c0,24.3,4.4,21.7,4.8,43.6h43.6c1.3-15.1,4.8-17.2,4.8-33.9c0-46.2,5.3-106.6-4.8-150.1c-64.7,0-130.2-7.3-155.1,33.7
	C123.5,2144.5,92.9,2258.2,92.9,2281.4z M209.1,2136.1h29v62.9h-77.5C173.2,2173,169.9,2136.1,209.1,2136.1z M664.2,2233
	c-20.5,13.8-10.4,9.7-58.1,9.7c-41.4,0-9.7-24.2-67.8-24.2c-35.2,0-5.9,62.9,53.3,62.9c43.9,0,90.7,7,115.2-25.4
	c14.4-19,11.4-44-5.7-59.9c-31.4-29.2-101.4-19.4-124-50.3c64.9-31.2,81.7,13.6,108.8,16.8c6.6,0.8,5.4,2.4,13-1.7
	c2.3-1.2,12.3-3.1,11.7-19.7c-2-52.1-143.2-58.2-173.8-21.1c-34.7,42.1,6.5,75.1,60.9,87.5c15.2,3.5,20.8,4.1,35.9,7.7
	C656,2220.7,653.2,2216.6,664.2,2233z M2247.2,2281.4c26.9,0,44.3,6.3,48.4-43.6h87.1c0,50.4-6.9,43.6,48.4,43.6
	c0-19.5,2.6-29.4,3.5-40.1c1.7-20.1-3.5-18.1-3.5-42.2c0-110.8,26.1-101.7-77.5-101.7c-89.1,0-90.4,57.1-115.9,161.2
	C2234.2,2273.7,2230.2,2281.4,2247.2,2281.4z M2353.7,2136.1h29v62.9h-77.5C2312.1,2170.2,2318.8,2136.1,2353.7,2136.1z
	 M3457.5,2145.8c0,24.2,0.4,30.5,19.9,43c53.3,34.4,105.6,11.4,115.6,48.9c-31.3,7.3-20.6,4.8-58.1,4.8c-39.9,0-8.4-24.2-77.5-24.2
	c-21.2,90.9,184,74.9,184,24.2c0-101.5-99.3-47.4-135.6-96.8c62.1-32.9,89.4,18.3,111.6,17.8c29.5-0.7,27.7-33.5,0.2-52.1
	C3586.8,2090.7,3457.5,2082.2,3457.5,2145.8z M4474.2,2136.1v82.3c0,29.5,4.8,35.3,4.8,62.9h154.9c18.3,0,14.5-11.3,14.5-38.7h-121
	v-33.9c108.9,0,106.5,8.4,106.5-24.2c0-24.2-41.3-14.5-106.5-14.5c0-43.9-13.7-33.9,121-33.9v-33.9c-43.6-10.2-108.1-4.8-154.9-4.8
	C4476.5,2097.4,4474.2,2118.9,4474.2,2136.1z M3012.1,2189.4c0,24.7,7.1,49.6,18.3,64c31.5,40.4,189.9,55.6,189.9-54.3
	c0-30.7-2.2-63.4-28-83.3C3149.5,2082.9,3012.1,2069.9,3012.1,2189.4z M3065.4,2203.9c0-47.3,0-72.6,58.1-72.6
	c59.9,0,59.9,116.2,0,116.2C3096.1,2247.5,3065.4,2241,3065.4,2203.9z M1540.4,2116.8v150.1c0,11.2,3.4,14.5,14.5,14.5h154.9
	c0-46.8,36-38.7-116.2-38.7v-33.9h101.7c8.6-35.8,11.2-39.8-53.3-38.7c-35.5,0.6-53,7.9-51.5-18.6c1.1-20.8,11-15.6,56.4-15.3
	c34.6,0.2,67.8,10.1,67.8-19.3c0-11.3-8-19.4-19.4-19.4h-135.6C1548.5,2097.4,1540.4,2105.4,1540.4,2116.8z M727.1,2165.2v48.4
	c0,33.1,35,67.8,67.8,67.8c57.1,0,146.6,10.3,136.5-102.6C919.8,2048.2,727.1,2083.6,727.1,2165.2z M828.8,2247.5
	c-77.6,0-66.1-116.2-4.8-116.2c39.1,0,58.1,14.7,58.1,62.9C882,2228.5,864.2,2247.5,828.8,2247.5z M2034.2,2111.9v169.4h48.4
	c0-27.9,12.3-47,0-72.6h82.3c0,32.2,4.8,41.9,4.8,72.6h43.6c10.3-44,4.8-116.6,4.8-164.6c0-30.2-39-16.7-48.4-14.5
	c-0.6,25.5-12.1,37.7,0,62.9h-87.1c8.3-17.3,9.1-67.8-14.5-67.8C2044.6,2097.4,2034.2,2094.1,2034.2,2111.9z M3665.7,2116.8v150.1
	c0,19.3,13.7,14.5,48.4,14.5l4.8-72.6h82.3v72.6c68.3,0,48.4,11.4,48.4-179.1c-31.8-7.4-53.3-15.4-53.3,33.9c0,18.2,3.2,9.2,4.8,29
	h-82.3c0-60.1,4.4-67.8-33.9-67.8C3673.7,2097.4,3665.7,2105.4,3665.7,2116.8z M3965.8,2102.3c0,194.2-18.3,179.1,48.4,179.1
	c1.6-18.7,4.8-15.6,4.8-38.7c73.3,0,135.6,7.2,135.6-82.3c0-18.8-14.1-38.3-25.2-47.4C4100.7,2089.7,3984.6,2095,3965.8,2102.3z
	 M4028.8,2136.1c65,0,72.6-0.2,72.6,43.6c0,27.1-49.2,24.2-72.6,24.2c-18.3,0-9.7,1.9-9.7-48.4
	C4019.1,2143.7,4008.4,2136.1,4028.8,2136.1z M2731.4,2126.5v121c0,16.7,3.6,18.7,4.8,33.9h43.6l4.8-38.7
	c75.1,0,135.6,7.4,135.6-77.5c0-84.1-96.9-67.8-169.4-67.8C2735.8,2097.4,2731.4,2111.6,2731.4,2126.5z M2813.6,2203.9h-29v-67.8
	c44,0,87.1-6.2,87.1,38.7C2871.7,2198.4,2838.5,2203.9,2813.6,2203.9z M4876,2116.8c0,190.3-13,164.6,48.4,164.6l4.8-72.6
	c50.4,0,43.4,5.2,70.5,45.6c21.4,31.9,22.1,27,69.8,27c-9.6-41.1-45.8-73.6-58.1-92c10.5-15.7,20.1-20.9,32-40.7
	c8.7-14.5,19.8-33,21.3-51.3c-40.8,0-50-1.9-65.9,26.1c-24.1,42.3-18.7,46.6-69.6,46.6c0-40.5,3-38.9-4.8-72.6
	C4900.9,2097.4,4876,2093.1,4876,2116.8z M5074.5,2155.5c0,116.5,21.8,125.9,116.2,125.9c98.8,0,72.6-114.2,72.6-179.1
	c-49.3-11.5-53.8-8-53.3,58c0.3,32.3,1.3,51.4-4.8,77.5c-30.6,7.1-37.2,7.1-67.8,0c-27.4-117.5,23.4-140.4-43.6-140.4
	C5074.5,2097.4,5074.5,2135.1,5074.5,2155.5z M1811.5,2194.2c0,97.5,84.7,87.1,140.4,87.1c44.5,0,97.7-72.6,33.9-72.6
	c-20.1,0-28.3,33.9-48.4,33.9c-50.8,0-72.6,5.9-72.6-58.1c0-48.2,26.9-48.4,62.9-48.4c43.9,0,13.1,33.9,67.8,33.9
	c32.4,0,12.6-72.6-53.3-72.6c-40.6,0-79.9-5.1-110,25.6C1818.6,2137,1811.5,2167.9,1811.5,2194.2z M1138.6,2111.9
	c0,142.4-15.7,169.4,111.3,169.4c90,0,72.6-93.2,72.6-159.8c0-13.1-2.3-13.4-4.8-24.2H1279c-18.5,38.6-3.8,94.3-14.5,140.4
	c-30.6,7.1-37.2,7.1-67.8,0c-6.8-29.2-10-34-9.7-72.6c0.5-63.8,9.9-67.8-33.8-67.8C1142,2097.4,1138.6,2100.8,1138.6,2111.9z
	 M5277.8,2116.8c0,25.4,4.9,19.4,67.8,19.4c0,45.5-5.2,102.1,4.8,145.2h43.6c10-43.1,4.8-99.7,4.8-145.2c75.1,0,67.8,5.9,67.8-33.9
	c-44.2-10.3-120.9-4.8-169.4-4.8C5285.8,2097.4,5277.8,2105.4,5277.8,2116.8z M1337.1,2111.9v24.2h53.3c40.4,0-11.4,145.2,29,145.2
	h33.9c0-28.3,4.8-33.8,4.8-58.1c0-88-37.1-87.1,62.9-87.1c12.5-52.3,0.8-38.7-169.4-38.7C1340.5,2097.4,1337.1,2100.8,1337.1,2111.9
	z M954.7,2111.9v169.4h169.4c2.3-27,6.6-10.2,0-38.7h-121v-130.7C1003.1,2090.3,954.7,2090.3,954.7,2111.9z M2939.5,2102.3
	l-0.4,145.7c-0.3,37.8-3.3,33.5,48.8,33.5c0.5-21.9,4.8-19.2,4.8-43.6C2992.8,2141,3010.6,2074.7,2939.5,2102.3z M3883.5,2111.9
	v169.4h48.4c0-24.5,4.8-26.4,4.8-53.3c0-119,10.5-130.7-38.7-130.7C3886.9,2097.4,3883.5,2100.8,3883.5,2111.9z M68.7,2063.5
	c248.4,0,497.2-1.4,745.6,0.1c30.7,0.2,55.8-2.5,87-5c33-2.6,87.9-50,112.9-71.1l1073.2-887.4c1.3,15.1,4.8,17.2,4.8,33.9v469.6
	c-49,0-364.2-4.1-397.9,8.7c-12.5,4.8-62.9,48.4-76.5,59L1256,1992.1c-23.4,21.7-64.1,53.3-68.9,71.5h1505.6V257.8
	c-148.9,0-465.7-30.1-572.8,22.6l-276.4,236.7c-24.8,19.3-42.6,38.4-67.8,58.1l-103.3,90.3c-8.3,7.4-8.8,6.6-16.4,12.7
	c-7.7,6.2-10.1,9.8-17.5,16.4l-135.5,116.3c-13.1,12.2-21.6,17.6-33.9,29L101.5,2028.5C75.6,2054.2,74.9,2040.5,68.7,2063.5z"/>
</svg>
