<?xml version="1.0" encoding="utf-8"?>
<!-- Generator: Adobe Illustrator 21.1.0, SVG Export Plug-In . SVG Version: 6.00 Build 0)  -->
<svg version="1.1" id="Слой_1" xmlns="http://www.w3.org/2000/svg" xmlns:xlink="http://www.w3.org/1999/xlink" x="0px" y="0px"
	 viewBox="0 0 514.3 145.7" style="enable-background:new 0 0 514.3 145.7;" xml:space="preserve">
<style type="text/css">
	.st0{fill-rule:evenodd;clip-rule:evenodd;fill:#303030;}
	.st1{fill-rule:evenodd;clip-rule:evenodd;fill:#FF1503;}
</style>
<path class="st0" d="M117.6,118.9c0,9-1.4,16.7,7.3,22.4c5.7,3.8,12.3,4.4,19.5,4.4c5.5,0,11.8-0.8,15.8-2.4c4.3-1.7,6.7-3,10.4-5.3
	c0.6-0.4,0.9-0.7,1.7-0.8c0.1,0.9,0.6,1.6,0.9,2.5c0.3,0.9,0.5,2,0.7,2.9c6.2,0,12.4,0.2,18.6,0.2l3.2-17.2
	c2.1-10.7,3.8-24.2,5.9-34.9l2.9-17.5c-1.9,0-3.2,0.2-5.3,0.2l-39,0.2l-3.5,21l11.5,0.8c0,5.5-1.8,17.3-4.1,22.2
	c-2.6,5.5-10.3,7.6-13.8,4.2c-2.8-2.7-1.6-7.3-1.1-10.7l3-19.1c2.1-12.9,8.6-50.8,11.9-61.9c0.3-1,0.7-1.5,1.3-2.3
	c2.3-2.9,8.9-5.4,12.4-1.7c4.6,5-1.4,20.6-1.4,28.2l31.9-0.2c0.1-3.7,3.1-16.6,3.1-25c0-5.2-0.5-10.2-2.8-14c-2.1-3.4-4-5.4-7.4-7.4
	c-11.4-6.9-30.7-7.3-42.8-2.6c-3.6,1.4-7.9,3.3-11,5.6c-3.1,2.4-6,4.5-8.5,7.9c-9.5,12.8-16.3,53-18.5,69.6
	C119,97.6,117.6,109.6,117.6,118.9 M0,142.8l32.3,0C32.4,142,43,77.7,43,77.7c0,0.2,33.1,0.2,33.9,0.2c1.3-7.1,2.5-14.3,3.6-21.5
	l-32.8-0.2c1.2-7.4,4.9-23.1,4.9-29.9c3.9,0,33.3-0.7,33.9-0.7c0.1-0.2,4.3-19.9,4.4-20.1c-1.6,0-67.1-0.2-67.1-0.2
	C23.7,5.3,0,142.7,0,142.8z M343.4,142.8L367.2,5.3c-2.9,0-54.2,0-54.4,0c0,0-2.8,15.9-3.6,21.3h21.9
	c-6.5,38.8-13.2,77.5-19.8,116.3C321.9,142.8,332.8,142.8,343.4,142.8z M71.3,142.8H103c6.1-34,24.3-137.5,24.3-137.5
	c-0.2,0-31,0-31.4,0C95.9,5.3,72.4,136.8,71.3,142.8z M225.1,5.3c0,0-23.8,136.9-23.8,137.6c0.3,0,28.3,0,31.8,0
	c0.1-5.8,11.6-65,11.7-65.1c0.4-0.2,14.8-0.4,16.4-0.5c-3.6,21.2-11,64.1-11.3,65.6c10.7,0,21.5,0,32.2,0L306.1,5.3
	c-0.6,0-32,0-32.1,0c0,0-8.7,50.3-8.9,51h-16.8l8.6-50.9C256.1,5.3,226.2,5.3,225.1,5.3z"/>
<g>
	<path class="st1" d="M427,5.3c0,0.4-3,137.6-3,137.6c0,0,37.9,0,41.8,0c0.2-0.6,46.5-137.3,46.5-137.6l-29.2,0
		c0,0-32.1,101.8-32.4,102.5c0-1.4,9.2-101.6,9.3-102.6C458,5.3,427,5.2,427,5.3 M343.4,142.8c6.7,0,25.9,0,31.8,0
		c0.1-0.5,19.8-115.3,21.3-116.3c0,0,21.8,0,22.2,0c0-0.1,3.4-21.2,3.4-21.2c-18.4,0-36.7,0-55,0L343.4,142.8z"/>
</g>
</svg>
