<?xml version="1.0" encoding="utf-8"?>
<!-- Generator: Adobe Illustrator 21.1.0, SVG Export Plug-In . SVG Version: 6.00 Build 0)  -->
<svg version="1.1" id="Слой_1" xmlns="http://www.w3.org/2000/svg" xmlns:xlink="http://www.w3.org/1999/xlink" x="0px" y="0px"
	 viewBox="0 0 645 250" style="enable-background:new 0 0 645 250;" xml:space="preserve">
<style type="text/css">
	.st0{fill:#FFFFFF;}
	.st1{fill:#303030;}
</style>
<g>
	<path class="st0" d="M199.2,195c-51.4,0-102.7,0-154.1,0c0-1,0-2.1,0-3.1c0.2,0,0.5,0.1,0.7,0.1c11.1,0,22.2,0,33.4-0.1
		c0.3,0,0.5,0,0.8-0.1c0.1-0.2,0.1-0.3,0.1-0.4c1.6-8.9,3.2-17.8,4.7-26.7c1.9-10.7,3.8-21.5,5.6-32.2c0.6-3.7,1-7.5,1.5-11.4
		c12-0.2,24.2-0.3,36.4-0.5c1.3-7.5,2.6-14.8,4-22.5c-12,0-23.9,0-35.8,0c1.9-11,3.7-21.8,5.5-32.6c0.6,0,1,0,1.5,0
		c11-0.1,22-0.1,33-0.2c1.8,0,2.7-0.7,3.3-2.3c0.2-0.7,0.4-1.4,0.5-2.1c0.7-4.4,1.5-8.7,2.2-13.1c0.3-1.5,0.5-3.1,0.8-4.8
		c-24.3,0-48.3,0-72.4,0c-0.1,0.3-0.2,0.7-0.2,1.1C69.9,49.4,69,54.7,68,60c-2.4,13.6-4.7,27.2-7.1,40.8
		c-2.4,13.6-4.7,27.2-7.1,40.7c-2.4,13.6-4.7,27.2-7.1,40.8c-0.5,3-1.1,6-1.7,9.1c0-50.8,0-101.6,0-152.4c185.1,0,370.2,0,555.3,0
		c0,52,0,103.9,0,156c-132.4,0-264.8,0-397.2,0c0.8-0.1,1.6-0.1,2.4-0.2c2.4-0.3,4.9-0.5,7.3-0.9c6.4-1.1,12-4,17.4-7.5
		c0.4-0.3,0.9-0.5,1.5-0.9c0.5,1.8,1,3.4,1.4,5c0.2,0.7,0.3,1.1,1.2,1.1c6,0,12.1,0.1,18.1,0.3c0.7,0,1-0.2,1.2-0.9
		c1.4-7.9,2.9-15.7,4.3-23.6c2.2-12.9,4.4-25.9,6.6-38.9c0.7-3.9,1.3-7.8,2-11.8c-0.5,0-1,0-1.4,0c-11.8,0.1-23.5,0.2-35.3,0.3
		c-3.4,0-6.8,0-10.2,0.1c-0.6,0-0.9,0.1-1.1,0.8c-0.7,3.6-1.6,7.2-2.3,10.9c-0.6,3.3-1,6.6-1.5,9.9c-0.1,0.8,0.2,1.1,1,1.2
		c1.4,0.1,2.8,0.4,4.1,0.7c2.3,0.4,4.7,0.8,7,1.2c0,0.3,0.1,0.5,0.1,0.6c0,0.5,0,1,0,1.4c-0.4,6.7-1.5,13.2-3.6,19.5
		c-1.4,4.3-4.5,6.7-8.8,7.6c-4.5,1-7.9-1.1-8.7-5.3c-0.2-0.9-0.2-1.9,0-2.9c1-7.1,1.9-14.3,3.1-21.3c2.5-14.8,5.1-29.7,7.9-44.5
		c1.6-8.6,3.6-17.1,5.4-25.7c0.9-4.2,3.9-6.4,7.8-7.5c4.8-1.3,8.6,1.1,9.3,5.7c0.2,1.3,0.3,2.7,0.1,4.1c-0.7,4.9-1.6,9.8-2.3,14.7
		c-0.4,2.6-0.8,5.2-1.2,7.8c0.4,0.1,0.5,0.1,0.7,0.1c11-0.1,22.1-0.2,33.1-0.2c0.7,0,0.8-0.3,0.9-0.9c0.6-3.9,1.2-7.7,1.8-11.6
		c0.9-6.4,1.9-12.8,1.3-19.3c-0.7-9.1-5-15.8-13.3-19.7c-5.8-2.8-12-4.1-18.4-4.6c-10.8-0.9-21.1,0.6-30.9,5.3
		c-9.9,4.8-17.2,11.9-21.1,22.5c-3,8.3-5.6,16.7-7.6,25.3c-5.4,23.3-9,46.9-9.9,70.9c-0.2,5.4,0.2,10.9,0.4,16.3
		c0,0.9,0.1,2,0.6,2.8c1.2,1.8,2.6,3.4,4,5c3.7,4.2,8.8,5.7,14.1,6.5C194.3,194.7,196.7,194.8,199.2,195z M382.4,191.6
		c1.3,0.2,2.3,0.4,3.2,0.4c9.4,0,18.7-0.1,28.1-0.1c1.5,0,3-0.1,4.4,0c7.6,0.2,15.1,0.7,22.7,0.7c3.3,0,6.6-0.7,9.9-1.1
		c0.9-0.1,1.4-0.7,1.6-1.6c0.7-3.2,1.5-6.4,2.1-9.6c2-10.8,4-21.6,5.9-32.4c2-11.4,3.9-22.9,5.9-34.4c1.7-9.9,3.3-19.9,5-29.8
		c0.8-5,1.7-9.9,2.5-14.9c0.4-2.8,1.1-3.7,4-3.7c2.8,0,5.5,0.1,8.3,0.1c3.4,0,6.7,0,10.1-0.2c2.2-0.1,2.7-0.7,3.2-2.8
		c0.9-4.1,1.8-8.3,2.6-12.4c0.4-2.1,0.7-4.3,1-6.6c-39.6-0.1-79-0.3-118.4-0.4c-0.1,0.9-0.1,1.4-0.1,1.9c-0.1,2.1,0.1,4.2-1.3,6.1
		c-0.3,0.3-0.3,0.8-0.4,1.2c-0.2,1.3-0.4,2.6-0.6,3.9c-0.5,3.3-1,6.6-1.5,10c8,0,15.8,0,23.8,0C397,107.9,389.4,149.6,382.4,191.6z
		 M350.7,191.9c8.5-49.7,18.1-99.1,26.1-148.8c-11.6,0-23.1,0-34.5,0c-0.1,0.4-0.2,0.7-0.3,0.9c-3.1,17.7-6.2,35.3-9.3,53
		c-0.1,0.8-0.4,1.1-1.3,1.1c-5.4,0-10.9,0-16.3,0c-0.3,0-0.6,0-1.1-0.1c3.2-18.4,6.3-36.7,9.5-55.1c-11.6,0.1-23.1,0.3-34.6,0.4
		c-8.6,49.8-17.2,99.4-25.8,149c0.2,0.1,0.3,0.1,0.4,0.1c11.1-0.2,22.2-0.3,33.2-0.5c0.3,0,0.8-0.5,0.8-0.8
		c1.2-6.2,2.3-12.5,3.4-18.8c3-16.7,5.9-33.4,8.8-50c0.2-0.9,0.5-1.1,1.3-1.1c4.5-0.1,9-0.2,13.4-0.4c1.2,0,2.3,0,3.6,0
		c-4.1,23.7-8.1,47.3-12.2,71.1C327.6,191.9,339.1,191.9,350.7,191.9z M549.7,191.8c1.1-3.3,2.2-6.6,3.4-9.8
		c11.7-33.3,23.6-66.5,35.2-99.8c4.1-11.7,7.4-23.6,11.1-35.4c0.4-1.2,0.5-2.5,0.8-3.9c-0.4,0-0.6,0-0.8,0
		c-9.7,0.1-19.4,0.2-29.2,0.3c-1.2,0-1.7,0.4-2,1.6c-10.5,33.3-21,66.6-31.4,99.9c-1,3.1-2,6.3-3,9.4c-0.3-0.4-0.3-0.9-0.3-1.3
		c0.6-7.5,1.2-15.1,1.8-22.6c0.5-6.1,1.2-12.2,1.8-18.3c0.6-6.2,1.2-12.5,1.8-18.7c0.6-6.4,1.2-12.9,1.8-19.3
		c0.5-5.7,1.1-11.5,1.6-17.2c0.4-4.6,0.8-9.1,1.2-13.8c-0.3,0-0.5-0.1-0.7-0.1c-7.2-0.1-14.5-0.2-21.7-0.2c-3.8,0-7.6,0.3-11.4,0.5
		c-2.3,0.1-2.3,0.2-2.3,2.4c0,0.6,0,1.3,0,1.9c-0.4,20.9-0.8,41.7-1.2,62.6c-0.2,10.4-0.4,20.7-0.6,31.1
		c-0.3,16.6-0.6,33.1-0.9,49.7c0,0.3,0.1,0.6,0.1,1C519.8,191.8,534.7,191.8,549.7,191.8z M156.7,191.9c1-4.5,2.1-9,2.9-13.5
		c2.4-13.6,4.7-27.2,7.1-40.7c2.5-14.5,5-29,7.6-43.6c2.6-15.1,5.2-30.1,7.8-45.2c0.4-2,0.7-4.1,1-6c-11.6,0-23,0-34.5,0
		c-0.2,1.5-0.3,2.9-0.5,4.2c-1.9,14.1-4.6,28.1-7.5,42.1c-4.7,23.2-9.4,46.3-13.9,69.5c-2,10.2-3.2,20.5-4,30.8
		c-0.1,0.8,0,1.6,0,2.4C134,191.9,145.3,191.9,156.7,191.9z"/>
	<path class="st1" d="M199.2,195c-2.5-0.2-4.9-0.4-7.4-0.7c-5.3-0.8-10.3-2.3-14.1-6.5c-1.4-1.6-2.8-3.3-4-5
		c-0.5-0.7-0.6-1.8-0.6-2.8c-0.2-5.4-0.6-10.9-0.4-16.3c1-23.9,4.6-47.6,9.9-70.9c2-8.6,4.5-17,7.6-25.3
		c3.9-10.6,11.2-17.7,21.1-22.5c9.8-4.7,20.2-6.2,30.9-5.3c6.4,0.5,12.6,1.9,18.4,4.6c8.3,3.9,12.5,10.6,13.3,19.7
		c0.5,6.5-0.4,12.9-1.3,19.3c-0.6,3.9-1.2,7.7-1.8,11.6c-0.1,0.6-0.2,0.9-0.9,0.9c-11,0.1-22.1,0.2-33.1,0.2c-0.2,0-0.3,0-0.7-0.1
		c0.4-2.6,0.8-5.2,1.2-7.8c0.8-4.9,1.6-9.8,2.3-14.7c0.2-1.3,0.1-2.7-0.1-4.1c-0.7-4.5-4.5-7-9.3-5.7c-3.9,1-6.8,3.3-7.8,7.5
		c-1.8,8.6-3.8,17.1-5.4,25.7c-2.8,14.8-5.3,29.6-7.9,44.5c-1.2,7.1-2.1,14.2-3.1,21.3c-0.1,0.9-0.2,1.9,0,2.9
		c0.8,4.1,4.2,6.3,8.7,5.3c4.3-0.9,7.4-3.3,8.8-7.6c2-6.4,3.2-12.9,3.6-19.5c0-0.5,0-1,0-1.4c0-0.2,0-0.3-0.1-0.6
		c-2.3-0.4-4.7-0.8-7-1.2c-1.4-0.2-2.8-0.5-4.1-0.7c-0.8-0.1-1.1-0.4-1-1.2c0.5-3.3,0.9-6.6,1.5-9.9c0.7-3.6,1.6-7.3,2.3-10.9
		c0.1-0.7,0.5-0.8,1.1-0.8c3.4,0,6.8,0,10.2-0.1c11.8-0.1,23.5-0.2,35.3-0.3c0.4,0,0.9,0,1.4,0c-0.7,4-1.3,7.9-2,11.8
		c-2.2,13-4.4,25.9-6.6,38.9c-1.4,7.9-2.9,15.7-4.3,23.6c-0.1,0.8-0.4,1-1.2,0.9c-6-0.1-12.1-0.2-18.1-0.3c-0.9,0-1-0.5-1.2-1.1
		c-0.4-1.6-0.9-3.2-1.4-5c-0.7,0.4-1.1,0.6-1.5,0.9c-5.4,3.4-11,6.4-17.4,7.5c-2.4,0.4-4.8,0.6-7.3,0.9c-0.8,0.1-1.6,0.2-2.4,0.2
		C201.9,195,200.6,195,199.2,195z"/>
	<path class="st1" d="M45.1,191.4c0.6-3,1.1-6,1.7-9.1c2.4-13.6,4.7-27.2,7.1-40.8c2.4-13.6,4.7-27.2,7.1-40.7
		C63.3,87.2,65.7,73.6,68,60c0.9-5.3,1.8-10.5,2.7-15.8c0.1-0.4,0.2-0.8,0.2-1.1c24.1,0,48.1,0,72.4,0c-0.3,1.7-0.5,3.3-0.8,4.8
		c-0.7,4.4-1.4,8.7-2.2,13.1c-0.1,0.7-0.3,1.4-0.5,2.1c-0.6,1.7-1.6,2.3-3.3,2.3c-11,0.1-22,0.1-33,0.2c-0.5,0-0.9,0-1.5,0
		c-1.8,10.9-3.6,21.6-5.5,32.6c11.9,0,23.8,0,35.8,0c-1.3,7.7-2.6,15-4,22.5c-12.2,0.2-24.4,0.3-36.4,0.5c-0.5,3.9-0.8,7.6-1.5,11.4
		c-1.8,10.8-3.7,21.5-5.6,32.2c-1.6,8.9-3.1,17.8-4.7,26.7c0,0.1-0.1,0.2-0.1,0.4c-0.3,0-0.5,0.1-0.8,0.1c-11.1,0-22.2,0.1-33.4,0.1
		c-0.2,0-0.5,0-0.7-0.1C45.1,191.8,45.1,191.6,45.1,191.4z"/>
	<path class="st1" d="M382.4,191.6c7-41.9,14.6-83.7,21.6-125.6c-8,0-15.9,0-23.8,0c0.5-3.4,1-6.7,1.5-10c0.2-1.3,0.4-2.6,0.6-3.9
		c0.1-0.4,0.1-0.9,0.4-1.2c1.4-1.8,1.3-4,1.3-6.1c0-0.5,0.1-1,0.1-1.9c39.5,0.1,78.8,0.3,118.4,0.4c-0.4,2.3-0.6,4.5-1,6.6
		c-0.8,4.2-1.7,8.3-2.6,12.4c-0.5,2.2-1,2.7-3.2,2.8c-3.3,0.2-6.7,0.2-10.1,0.2c-2.8,0-5.5-0.2-8.3-0.1c-2.8,0-3.6,0.9-4,3.7
		c-0.7,5-1.6,9.9-2.5,14.9c-1.7,9.9-3.3,19.9-5,29.8c-1.9,11.5-3.9,22.9-5.9,34.4c-1.9,10.8-3.9,21.6-5.9,32.4
		c-0.6,3.2-1.4,6.4-2.1,9.6c-0.2,0.9-0.7,1.4-1.6,1.6c-3.3,0.4-6.6,1.1-9.9,1.1c-7.6,0-15.1-0.5-22.7-0.7c-1.5,0-3,0-4.4,0
		c-9.4,0-18.7,0.1-28.1,0.1C384.7,191.9,383.7,191.7,382.4,191.6z"/>
	<path class="st1" d="M350.7,191.9c-11.7,0-23.1,0-34.8,0c4.1-23.8,8.1-47.4,12.2-71.1c-1.3,0-2.5,0-3.6,0c-4.5,0.1-9,0.3-13.4,0.4
		c-0.8,0-1.2,0.2-1.3,1.1c-2.9,16.7-5.9,33.4-8.8,50c-1.1,6.3-2.2,12.5-3.4,18.8c-0.1,0.3-0.5,0.8-0.8,0.8
		c-11.1,0.2-22.2,0.4-33.2,0.5c-0.1,0-0.1-0.1-0.4-0.1c8.6-49.6,17.2-99.2,25.8-149c11.5-0.1,22.9-0.3,34.6-0.4
		c-3.2,18.4-6.4,36.7-9.5,55.1c0.5,0,0.8,0.1,1.1,0.1c5.4,0,10.9,0,16.3,0c0.9,0,1.1-0.3,1.3-1.1c3.1-17.7,6.2-35.3,9.3-53
		c0-0.3,0.1-0.5,0.3-0.9c11.4,0,22.8,0,34.5,0C368.8,92.8,359.2,142.2,350.7,191.9z"/>
	<path class="st1" d="M549.7,191.8c-15,0-29.9,0-44.9,0c0-0.4-0.1-0.7-0.1-1c0.3-16.6,0.6-33.1,0.9-49.7c0.2-10.4,0.4-20.7,0.6-31.1
		c0.4-20.9,0.8-41.7,1.2-62.6c0-0.6,0-1.3,0-1.9c0-2.2,0-2.3,2.3-2.4c3.8-0.2,7.6-0.5,11.4-0.5c7.2,0,14.5,0.1,21.7,0.2
		c0.2,0,0.5,0.1,0.7,0.1c-0.4,4.6-0.8,9.2-1.2,13.8c-0.5,5.7-1.1,11.5-1.6,17.2c-0.6,6.4-1.2,12.9-1.8,19.3
		c-0.6,6.2-1.2,12.5-1.8,18.7c-0.6,6.1-1.3,12.2-1.8,18.3c-0.7,7.5-1.2,15.1-1.8,22.6c0,0.4,0,0.8,0.3,1.3c1-3.1,2-6.3,3-9.4
		c10.5-33.3,21-66.6,31.4-99.9c0.4-1.1,0.8-1.6,2-1.6c9.7-0.1,19.4-0.2,29.2-0.3c0.2,0,0.4,0,0.8,0c-0.3,1.3-0.4,2.6-0.8,3.9
		c-3.7,11.8-7,23.7-11.1,35.4c-11.6,33.3-23.4,66.6-35.2,99.8C551.9,185.3,550.8,188.5,549.7,191.8z"/>
	<path class="st1" d="M156.7,191.9c-11.4,0-22.7,0-34,0c0-0.8-0.1-1.6,0-2.4c0.8-10.3,2-20.6,4-30.8c4.5-23.2,9.3-46.4,13.9-69.5
		c2.8-14,5.5-28,7.5-42.1c0.2-1.3,0.3-2.7,0.5-4.2c11.5,0,23,0,34.5,0c-0.3,2-0.7,4-1,6c-2.6,15.1-5.2,30.1-7.8,45.2
		c-2.5,14.5-5,29-7.6,43.6c-2.4,13.6-4.7,27.2-7.1,40.7C158.8,182.9,157.7,187.4,156.7,191.9z"/>
</g>
</svg>
