<?xml version="1.0" encoding="utf-8"?>
<!-- Generator: Adobe Illustrator 21.1.0, SVG Export Plug-In . SVG Version: 6.00 Build 0)  -->
<svg version="1.1" id="Слой_1" xmlns="http://www.w3.org/2000/svg" xmlns:xlink="http://www.w3.org/1999/xlink" x="0px" y="0px"
	 viewBox="0 0 512 532" style="enable-background:new 0 0 512 532;" xml:space="preserve">
<style type="text/css">
	.st0{fill:#303030;}
</style>
<g>
	<g>
		<path class="st0" d="M439.8,366.9c-1.8,1.5-2.8,2.3-3.7,3.2c-46,46-92.1,92-138.1,138.1c-4.8,4.8-9.3,9.9-14,14.8c25,0,50,0,75,0
			c0.6-1,1-2.1,1.7-2.8c25.4-25.7,50.9-51.3,76.1-77.1c1.9-2,3.3-5.4,3.4-8.2c0.2-20.6,0-41.3-0.1-61.9
			C440.1,371.2,440,369.5,439.8,366.9z"/>
		<path class="st0" d="M318.1,469.4c-73.6,0-146.3,0-219.7,0c1.5,1.7,2.4,3,3.6,4.1c14.9,15,30,29.9,44.8,44.9
			c2.6,2.6,5.2,3.6,8.8,3.6c35.6-0.3,71.3-0.5,106.9-0.6c3.7,0,6.2-1.2,8.7-3.8c14.6-14.9,29.3-29.6,43.9-44.4
			C316,472.3,316.8,471.1,318.1,469.4z"/>
		<path class="st0" d="M500,257.1c-14.7-15-29.7-29.7-44.6-44.5c-1.1-1.1-2.3-2.1-4.1-3.7c0,73.9,0,146.8,0,220.3
			c1-0.7,1.5-0.9,1.8-1.3c16.3-16.3,32.6-32.5,48.7-48.9c1.3-1.3,1.9-3.8,1.9-5.8c-0.1-36.3-0.2-72.7-0.6-109
			C503.1,262,501.8,258.9,500,257.1z"/>
		<path class="st0" d="M191.9,75.9c73.5,0,146,0,219.5,0c-1.3-1.6-2.1-2.6-3-3.5c-15.3-15.3-30.5-30.7-46-45.9c-1.9-1.8-5.2-3-7.8-3
			c-36,0-72,0.2-108,0.6c-2.3,0-5.2,1.3-6.8,2.9c-15,14.9-29.9,29.9-44.8,45C194.1,72.9,193.3,74.1,191.9,75.9z"/>
		<path class="st0" d="M505.2,172.4c0-1.6-1.1-3.5-2.2-4.7c-25.8-25.8-51.7-51.5-77.8-77c-1.7-1.6-4.6-2.7-7-2.8
			c-8.3-0.3-16.7-0.1-25-0.1c-14.1,0-28.3,0-43.8,0C402,140.2,453.6,191.3,505,242.3c-0.1,0.3,0.2-0.3,0.2-0.9
			C505.3,218.4,505.3,195.4,505.2,172.4z"/>
		<path class="st0" d="M69.7,176.4c51.5-51.4,102.9-102.8,154.1-154c-22.8,0-46.5,0-70.1,0.1c-1.4,0-3.1,1.1-4.2,2.2
			c-25.8,26-51.6,52-77.2,78.3c-1.7,1.8-2.8,4.9-2.8,7.4c-0.1,16.3,0.1,32.7,0.2,49C69.7,165.3,69.7,171.3,69.7,176.4z"/>
		<path class="st0" d="M155.2,458.7c1.8,0,3.5-0.2,6-0.3C109,406.6,57.4,355.4,5.9,304.4c0.1-0.3-0.2,0.3-0.2,0.9c0,23-0.1,46,0,69
			c0,1.6,1.2,3.4,2.3,4.6c25.7,25.6,51.5,51.2,77.4,76.6c1.9,1.8,5.1,3.2,7.7,3.2C113.9,458.9,134.5,458.8,155.2,458.7z"/>
		<path class="st0" d="M9.1,289.1c13.5,13.8,27.3,27.3,41,41c2.3,2.3,4.7,4.4,7.8,7.4c0-73.9,0-146.6,0-220.3
			c-1.9,1.7-3.1,2.6-4.2,3.6c-14.9,15-29.8,30-44.8,44.9c-2.6,2.6-3.6,5.2-3.6,8.8c0.3,35.8,0.4,71.6,0.7,107.4
			C6.2,284.2,7.4,287.3,9.1,289.1z"/>
	</g>
	<path class="st0" d="M183.1,293.7c-2.7,9.7-5.3,19.5-8,29.2c-1.8,6.6-3.7,13.1-5.3,19.8c-0.8,3.5-2.5,4.6-5.9,4.3
		c-3.1-0.3-6.4-0.4-9.5,0c-4.4,0.5-5.7-1.5-6.5-5.4c-3.1-15-6.5-29.9-10.4-44.9c-0.1,1.2-0.3,2.3-0.4,3.5c-0.5,14.5-1.1,29-1.4,43.5
		c-0.1,3.8-1.2,5.4-5.2,5.1c-4.3-0.3-8.7-0.3-13,0c-3.8,0.2-4.9-1.2-4.7-4.9c1.3-23.1,2.4-46.3,3.6-69.4c0.1-1.3,0.2-2.7,0.3-4
		c0.6-10-1.2-8.7,9.5-8.8c6.5-0.1,13,0.2,19.5-0.1c3.3-0.1,4.7,1,5.4,4.2c3,13.6,6.3,27.2,9.7,42.2c0.7-2.6,1.1-4.1,1.5-5.6
		c3.3-12.2,6.8-24.4,10-36.6c0.8-3.2,2.3-4.3,5.5-4.2c7.7,0.2,15.3,0.2,23,0c3.6-0.1,4.9,0.9,5.1,4.7c0.9,25.5,1.9,51,3.2,76.4
		c0.3,5-1.4,6.5-6.1,6.1c-4.3-0.4-8.7-0.3-13,0c-3.7,0.2-5-1.1-5-4.8c-0.2-15.2-0.6-30.3-1-45.5c0-1.6-0.2-3.2-0.3-4.8
		C183.6,293.8,183.3,293.7,183.1,293.7z"/>
	<path class="st0" d="M315.7,348.7c-7.1,0-14.2,0.2-21.2-0.2c-0.9,0-2.2-3-2.2-4.6c-0.5-14.3-0.7-28.6-1.1-42.9c0-2.2,0-4.3-0.9-6.7
		c-0.4,1.3-1,2.5-1.3,3.8c-4,14.8-8.1,29.5-11.9,44.4c-0.9,3.6-2.4,4.7-6.1,4.7c-14.6-0.1-14.6,0.1-17.9-14.3
		c-2.6-11.7-5.2-23.3-8.9-35c0,2.3,0.1,4.6,0,6.9c-0.4,12.3-0.8,24.6-1.3,36.9c-0.3,7.2-0.3,7.2-7.7,7.1c-4.5,0-9-0.1-13.5-0.1
		c-0.4,0-0.9-0.4-1.8-0.8c0.5-9.6,0.9-19.4,1.4-29.2c0.9-17.3,1.9-34.6,2.6-51.9c0.2-3.9,1.3-5.2,5.3-5.1c8,0.3,16,0.2,24,0
		c3.1-0.1,4.4,1.1,5.1,4c3.1,13.8,6.3,27.6,9.7,42.3c0.6-2.1,1.1-3.5,1.5-4.9c3.3-12.2,6.7-24.4,9.8-36.7c0.9-3.4,2.2-5,6.1-4.8
		c7.8,0.3,15.7,0.1,23.5,0.1c2.5,0,4.1,0.4,4.2,3.5c1,27,2.2,53.9,3.3,80.9C316.2,346.7,315.9,347.3,315.7,348.7z"/>
	<path class="st0" d="M406.8,348.7c-8.4,0-16.2,0.1-24-0.1c-1.1,0-2.5-1.9-3-3.2c-1.6-4.6-2.5-9.3-4.2-13.8
		c-0.6-1.5-2.8-3.2-4.4-3.2c-5.3-0.3-12-1.8-15.5,0.8c-3.2,2.3-3.4,9.3-4.3,14.3c-0.8,4.3-2.5,5.8-6.9,5.5
		c-6.2-0.4-12.5-0.1-19.5-0.1c0.5-2.4,0.7-4,1.1-5.5c7.3-25.6,14.7-51.2,21.9-76.8c1-3.7,2.8-5,6.6-4.8c7.5,0.3,15-0.1,22.5,0.2
		c1.6,0.1,4,1.7,4.5,3.2c8.4,26.7,16.5,53.4,24.6,80.1C406.4,346,406.5,346.8,406.8,348.7z M371,307.9c-2.2-7.7-4.2-14.6-6.2-21.6
		c-0.3,0-0.6,0-0.8-0.1c-1.7,7.1-3.4,14.2-5.2,21.6C363.1,307.9,366.7,307.9,371,307.9z"/>
	<path class="st0" d="M139,221.5c5.5,6.7,5.8,22.1,0.9,26.6c-0.9,0.9-2.2,1.9-3.3,1.9c-8.5,0.2-17,0.1-25.5,0.1
		c-1.3,0-2.6-0.2-4.1-0.4c0.2-3.1-2.1-6.5,2.6-8c0.7-0.2,0.8-2.7,0.8-4.1c0.1-8.8,0.2-17.6-0.1-26.4c-0.1-2.7,1.9-6.4-3-7.7
		c-0.7-0.2-0.4-4.2-0.6-7.1c10.4,0,20.2-0.4,29.9,0.3c2.3,0.2,5.9,3.9,6.1,6.1C143.1,209.1,145.5,216.3,139,221.5z M118.6,242.3
		c2.6,0,4.9,0,7.2,0c10.4,0,11.3-0.9,9.4-11.3c-0.4-2-2.7-4.7-4.5-5c-3.9-0.8-8.1-0.2-12.1-0.2C118.6,231.6,118.6,236.7,118.6,242.3
		z M118.4,217.8c2.3,0,4,0,5.8,0c2,0,4.1,0.4,5.9-0.1c1.6-0.4,3.3-1.6,4.3-2.9c2.1-2.7,1.1-10.2-1.3-10.4c-4.9-0.3-9.8-0.1-14.8-0.1
		C118.4,209,118.4,212.9,118.4,217.8z"/>
	<path class="st0" d="M318.2,249.4c0-16.8,0-33.4,0-50c0-3,1.8-3,3.9-3.1c2.7-0.1,3.9,0.7,3.9,3.7c-0.1,9.7-0.1,19.3,0,29
		c0,1.6,0.2,3.1,1.2,4.9c3.6-7.6,7.3-15.1,10.9-22.7c1.6-3.3,3.5-6.5,4.7-9.9c1.8-5.2,5.2-5.7,10-4.3c0,17.5,0,34.9,0,52.7
		c-2.3,0-4.5,0-7.4,0c0-12.2,0-24.4,0-36.5c-0.4-0.1-0.8-0.2-1.2-0.3c-3.3,6.8-6.6,13.6-9.9,20.4c-1.9,3.9-4,7.7-5.5,11.8
		C326.8,250.1,323.5,251,318.2,249.4z"/>
	<path class="st0" d="M279.1,226.1c0,8,0,15.6,0,23.6c-2.6,0-4.8,0-7.4,0c0-17.6,0-35.2,0-53c2.4,0,4.5,0,7.1,0c0,6.8,0,13.6,0,20.7
		c6.9,0,13.3,0,20.3,0c0-6.8,0-13.5,0-20.6c2.8,0,5,0,7.6,0c0,17.7,0,35.2,0,53.1c-2.4,0-4.5,0-7.2,0c0-7.8,0-15.6,0-23.7
		C292.6,226.1,286.2,226.1,279.1,226.1z"/>
	<path class="st0" d="M153,250.1c0-14.8-0.2-33-0.4-47.8c-0.1-3.8,1.1-4.9,4.8-4.8c8.5,0.2,17,0.1,26.1,0.1c0.1,2.6,0.2,4.9,0.4,7.8
		c-8,0-15.4,0-23.2,0c0,4.6,0,8.7,0,13.5c6,0,12,0,18.3,0c0,2.9,0,5.2,0,8c-6.1,0-12.1,0-18.3,0c0,5.6,0,9.7,0,16
		c7.5-0.5,14.9,0,23.4-0.5c0.4,0.7,0,0,0.2,7.4"/>
	<path class="st0" d="M364.3,196.6c2.4,0,4.5,0,7.2,0c0,6.8,0,13.6,0,21.4c1.7-1.4,2.6-1.9,3.3-2.7c4.2-5.2,8.5-10.3,12.4-15.7
		c2.3-3.2,4.9-4.1,8.8-2.8c0,2.1,0,4.2,0,6.3c-7.5,4-10.9,11.9-16.1,18.1c-0.4,0.5,0.2,2.2,0.8,3c4,5.5,8,11.1,12.4,16.3
		c4.6,5.4,4.8,5.2,4.4,8.9c-3.7,1.4-6.7,0.9-9.2-2.8c-4.9-6.9-10.1-13.5-16.3-19.9c0,7.5,0,15,0,22.9c-2.9,0-5.1,0-7.6,0
		C364.3,232.1,364.3,214.6,364.3,196.6z"/>
	<path class="st0" d="M202.6,250.1c-6,0-9.4-3.4-9.4-9.5c0-11.5,0-23,0-34.4c0-6.4,3.4-9.8,9.6-9.8c3.8,0,7.7,0,11.5,0
		c9.6,0,12.5,3.5,11,13.8c-2.4,0-4.5,0-7,0c1-6.5-3.1-6-7.3-6c-10.1,0.1-10.1,0-10.1,9.9c0,8,0.1,16-0.1,23.9
		c-0.1,3.3,1,4.5,4.3,4.3c6.2-0.5,12.7,0,19.8-0.5c0.4,0.8,0.1,0.4,0.8,7.4"/>
	<path class="st0" d="M264.3,196.6c0,2.7,0,4.8,0,7.6c-2.7,0-5.1,0.2-7.5-0.1c-4.3-0.5-5.3,1.3-5.2,5.4c0.2,12,0.1,24,0.1,36
		c0,1.3-0.2,2.6-0.3,4.3c-2.3,0-4.3,0-7.2,0c0-14.9,0-29.9,0-45.5c-4.7,0-8.6,0-12.7,0c0-2.8,0-5,0-7.6
		C242.4,196.6,253.1,196.6,264.3,196.6z"/>
</g>
</svg>
