<?xml version="1.0" encoding="utf-8"?>
<!-- Generator: Adobe Illustrator 21.1.0, SVG Export Plug-In . SVG Version: 6.00 Build 0)  -->
<svg version="1.1"
	 id="Слой_1" shape-rendering="geometricPrecision" text-rendering="geometricPrecision" image-rendering="optimizeQuality"
	 xmlns="http://www.w3.org/2000/svg" xmlns:xlink="http://www.w3.org/1999/xlink" x="0px" y="0px" viewBox="0 0 566.9 118.9"
	 style="enable-background:new 0 0 566.9 118.9;" xml:space="preserve">
<style type="text/css">
	.st0{fill:#5A287F;}
	.st1{fill:#009DE0;}
</style>
<g id="Слой_x0020_1">
	<g id="_649210000">
		<path class="st0" d="M35.4,0.1v12.3H17.7v94.1h17.7v12.3H0V0L35.4,0.1L35.4,0.1L35.4,0.1z"/>
		<path class="st0" d="M75.1,0.1V94H53V0.1H75.1z"/>
		<path class="st0" d="M113.5,34c5.5-7.5,14.5-10.7,23.6-10.7s22.8,2.5,22.8,27.9V94h-20.4V54.5c0-6.7-0.7-17.6-11.5-17.6
			c-13.4,0-13.7,15.7-13.7,18.7V94H93.9V25.8h19.6L113.5,34L113.5,34z"/>
		<path class="st0" d="M210.8,0.1v118.8h-35.4v-12.3h17.7V12.5h-17.7V0.2L210.8,0.1L210.8,0.1L210.8,0.1z"/>
		<path class="st1" d="M294,0.1h27.6L283.9,39l40.5,55h-27.6l-28.2-40.5L258,64.1v29.8h-22.1V0.1H258v38.2L294,0.1L294,0.1z"/>
		<path class="st1" d="M332.6,47.8c1.1-23.6,24.6-24.6,32.1-24.6c30.7,0,31.3,17.6,31.3,25.5l-0.4,31.1c-0.1,7.5,0.1,11.9,4,12.9
			v1.2h-21.5l-1.7-6.7H376c-5.4,6.8-14.4,9.3-22.8,9.3c-21.7,0-23.8-14-23.8-19.7c0-15.6,13-19.2,25.4-21.3
			c15-2.1,20.4-1.1,20.8-7.6V46c-0.4-9-8.7-9-11-9c-3.8,0-12.5,0.8-12.5,10.9h-19.5V47.8L332.6,47.8z M375.7,61.5
			c-6,2.8-5.6,2.1-13.4,3.6c-4.3,0.7-11.9,2.1-11.9,9.8c0,6.4,6.6,7.9,10.5,7.9c5,0,14.9-3.4,14.9-17L375.7,61.5L375.7,61.5
			L375.7,61.5z"/>
		<path class="st1" d="M431.9,25.8l-0.1,8.2h0.4c7.9-9.8,16.9-10.7,22-10.7c19.2,0,31,14.2,31,36.8c0,21.5-11.9,36.5-31.4,36.5
			c-2.7,0-14-0.7-20.7-9.5v31.8h-20.4v-93h19.2L431.9,25.8L431.9,25.8z M448.1,82.9c11.8,0,15.8-11.3,15.8-23.1
			c0-19.1-9.8-22.8-15.8-22.8c-6.2,0-16,3.8-16,22.8C432.2,71.6,436.2,82.9,448.1,82.9z"/>
		<path class="st1" d="M499.9,47.8c1.1-23.6,24.6-24.6,32.1-24.6c30.7,0,31.3,17.6,31.3,25.5l-0.4,31.1c-0.1,7.5,0.1,11.9,4,12.9
			v1.2h-21.5l-1.7-6.7h-0.4c-5.4,6.8-14.4,9.3-22.8,9.3c-21.7,0-23.8-14-23.8-19.7c0-15.6,13-19.2,25.4-21.3
			c15-2.1,20.4-1.1,20.8-7.6V46c-0.4-9-8.7-9-11-9c-3.8,0-12.5,0.8-12.5,10.9h-19.5V47.8L499.9,47.8z M543,61.5
			c-6,2.8-5.6,2.1-13.4,3.6c-4.3,0.7-11.9,2.1-11.9,9.8c0,6.4,6.6,7.9,10.5,7.9c5,0,14.9-3.4,14.9-17L543,61.5L543,61.5L543,61.5z"
			/>
	</g>
</g>
</svg>
