<?xml version="1.0" encoding="utf-8"?>
<!-- Generator: Adobe Illustrator 21.1.0, SVG Export Plug-In . SVG Version: 6.00 Build 0)  -->
<svg version="1.1" id="Слой_97_xA0_Изображение_1_"
	 xmlns="http://www.w3.org/2000/svg" xmlns:xlink="http://www.w3.org/1999/xlink" x="0px" y="0px" viewBox="0 0 1828 852"
	 style="enable-background:new 0 0 1828 852;" xml:space="preserve">
<style type="text/css">
	.st0{fill:#303030;}
</style>
<g>
	<path class="st0" d="M609.2,490.9c0,36,0,72,0,108c0,1.4-0.1,2.9,0,4.3c0.2,3.3-1.1,5.6-3.6,7.8c-6.6,6.1-12.7,12.6-19.1,18.8
		c-8.8,8.6-17.5,17.3-26.5,25.7c-4.5,4.3-9.3,8.2-13.6,12.7c-2.6,2.8-5.4,5.4-8.1,8.1c-2.2,2.3-4.6,3.9-8,3.4c-0.6-0.1-1.3,0-1.9,0
		c-22.9,0-45.7,0-68.6,0c-0.6,0-1.3-0.1-1.9,0c-3.1,0.4-5.4-1-7.6-3.1c-10.9-10.3-21.5-21-32.4-31.3c-8.3-7.9-16.4-16.1-24.6-24.1
		c-3.9-3.8-7.8-7.5-11.8-11.2c-2.8-2.5-3.9-5.5-3.9-9.3c0.1-73.4,0.1-146.8,0.1-220.2c0-0.6,0-1.3,0-1.9c-0.1-2.7,1-4.8,3-6.7
		c10.8-10.4,21.5-20.9,32.3-31.3c11.5-11.1,23-22.2,34.5-33.3c0.3-0.3,0.7-0.7,1-1c3-2.6,6.1-4,10.3-3.9c23.5,0.2,47,0.1,70.5,0.1
		c0.6,0,1.3,0.1,1.9,0c2.6-0.2,4.6,0.7,6.4,2.5c5.1,5,10.5,9.8,15.6,14.8c1.8,1.8,3.5,3.7,5.3,5.5c0.3,0.3,0.5,0.9,0.9,1.1
		c5.7,3.4,9.6,8.8,14.4,13.3c7.8,7.3,15.5,14.7,23.2,22.2c3.3,3.2,6.4,6.6,9.8,9.8c1.6,1.5,2.2,3.1,2.2,5.1c0,1.8,0,3.5,0,5.3
		C609.2,418.3,609.2,454.6,609.2,490.9z M512.3,384c-1.1-0.1-2.5-0.2-3.9-0.2c-9.4,0-18.9,0-28.3,0c-0.8,0-1.6,0-2.4,0
		c-3,0.3-5,2.2-5.3,5.2c-0.1,1.4-0.1,2.9-0.1,4.3c0,25,0,49.9,0,74.9c0,40,0,80,0,120c0,1.8,0,3.5,0.1,5.3c0.1,1.1,0.7,1.8,1.7,2.1
		c1.4,0.3,2.8,0.6,4.2,0.6c10.4,0.1,20.8,0,31.2,0c0.8,0,1.6,0,2.4-0.2c1.4-0.2,2.3-1,2.5-2.5c0.2-1.7,0.2-3.5,0.2-5.3
		c0-65,0-129.9,0-194.9c0-1.3,0-2.6,0-3.8C514.6,387.5,514,385.7,512.3,384z"/>
	<path class="st0" d="M1577.2,302.8c2.3,5.2,5.3,9.5,7,14.5c0.5,1.3,1.6,2.4,2.3,3.6c2.3,4.2,4.3,8.5,6.4,12.8
		c1.9,4,4.3,7.7,6.5,11.6c1.2,2.1,2.3,4.2,3.2,6.4c2.5,5.5,5.4,10.8,8.4,16.1c2.5,4.4,4.4,9.2,6.6,13.7c1,2,2.2,3.9,3.2,5.8
		c4.3,7.8,8,15.9,12.4,23.6c3.6,6.4,6.6,13,9.9,19.6c2.6,5.1,5.2,10.2,7.9,15.2c1.1,2.1,2.2,4.2,3.4,6.3c0.2,0.3,0.8,0.4,1.2,0.4
		c0.2,0,0.6-0.3,0.7-0.6c0.3-1.2,0.6-2.5,0.6-3.8c0.1-1.8,0.1-3.5,0.1-5.3c0-44.2,0-88.3,0-132.5c0-1.8,0-3.5,0.1-5.3
		c0.1-1.6,0.8-2.3,2.4-2.5c1.3-0.1,2.6-0.1,3.8-0.1c18.9,0,37.8,0,56.6,0c1.4,0,2.9,0,4.3,0.2c1.1,0.1,1.7,0.9,1.8,1.9
		c0.1,1.4,0.2,2.9,0.2,4.3c0,9.9,0,19.8,0,29.8c0,110.9,0,221.7,0,332.6c0,1.9,0,3.8-0.1,5.8c-0.1,1.6-0.8,2.2-2.5,2.4
		c-1,0.1-1.9,0.1-2.9,0.1c-19.4,0-38.7,0-58.1,0c-1.7,0-3.5,0.3-5-0.8c-1.1-1.9-0.7-3.9-0.7-5.8c0-20.8,0-41.6,0-62.4
		c0-1.9,0-3.8,0-5.8c0-2.3-0.7-4.2-1.9-6.3c-2.6-4.7-4.7-9.7-7.1-14.6c-1.3-2.7-2.8-5.3-4.1-8.1c-1.1-2.5-2.3-4.9-3.5-7.3
		c-3.7-7.2-6.8-14.7-10.6-21.8c-2.5-4.7-4.3-9.9-6.8-14.7c-2.5-4.8-4.5-9.8-7.3-14.4c-1.3-2.2-2.2-4.6-3.2-6.9
		c-1.4-3-2.6-6.1-4.1-9.1c-2.6-4.9-5.3-9.8-7.4-15c-0.1-0.1-0.1-0.3-0.2-0.5c-3.1-6.3-6.2-12.5-9.2-18.8c-1.4-2.8-2.8-5.7-4.2-8.5
		c-1.2-2.4-2.4-4.9-3.6-7.3c-0.2-0.3-0.8-0.6-1.2-0.6c-0.4,0-0.9,0.5-1,0.8c-0.3,0.9-0.4,1.9-0.4,2.8c-0.1,2.1-0.1,4.2-0.1,6.2
		c0,70.2,0,140.5,0,210.7c0,1.9,0,3.8-0.2,5.7c-0.1,1.1-0.8,1.7-1.9,1.9c-1.1,0.1-2.2,0.2-3.3,0.2c-19.5,0-39,0-58.5,0
		c-5.3,0-5.3-0.1-5.4-5.4c0-1,0-1.9,0-2.9c0-120.1,0-240.3,0-360.4c0-1.9,0-3.8,0.1-5.8c0.1-1.6,0.8-2.3,2.4-2.4
		c1.1-0.1,2.2-0.1,3.4-0.1c18.1,0,36.2,0,54.2,0C1573.4,302.6,1575.1,302.7,1577.2,302.8z"/>
	<path class="st0" d="M672.6,491.2c0-60.3,0-120.6,0-180.9c0-1.8,0-3.5,0.1-5.3c0.1-1.5,0.9-2.2,2.5-2.4c1.3-0.1,2.6-0.1,3.8-0.1
		c47,0,94,0,141.1,0c0.6,0,1.3,0.1,1.9,0c3.1-0.3,5.6,0.8,7.9,2.8c3.1,2.8,6.3,5.4,9.5,8c8.3,6.7,16.7,13.4,24.9,20.1
		c6.4,5.2,12.8,10.6,19.2,15.8c1.7,1.4,3.6,2.7,5.4,4c1.6,1.2,2.4,3,2.5,5c0,1.3,0,2.6,0,3.8c0,45.1,0,90.2,0,135.3
		c0,0.8,0,1.6,0,2.4c0.1,3.1-0.9,5.4-3.5,7.4c-7.5,5.9-14.8,12.1-22.2,18.2c-8.3,6.9-16.7,13.9-25,20.8c-3.8,3.1-7.6,6.3-11.5,9.3
		c-1.1,0.8-2.6,1.3-3.9,1.5c-1.6,0.3-3.2,0.2-4.8,0.2c-14.9,0-29.7,0-44.6,0c-1.3,0-2.6,0-3.8,0c-3.6,0.1-4.5,0.9-4.8,4.5
		c-0.2,1.7-0.1,3.5-0.1,5.3c0,34.9,0,69.7,0,104.6c0,1.8,0,3.5-0.1,5.3c-0.1,1.5-0.9,2.4-2.4,2.5c-1.7,0.2-3.5,0.3-5.3,0.3
		c-24.9,0-49.9,0-74.8,0c-2.7,0-5.4,0-8.2,0c-2.9-0.1-3.5-0.7-3.6-3.8c-0.1-1.4,0-2.9,0-4.3C672.6,611.5,672.6,551.3,672.6,491.2z
		 M767.1,431.2c0,12.6,0,25.3,0,37.9c0,1.4,0,2.9,0.1,4.3c0.2,1.9,1.2,2.8,3.1,3.1c0.8,0.1,1.6,0.1,2.4,0.1c6.1,0,12.2,0,18.2,0
		c0.8,0,1.6,0,2.4-0.1c2.1-0.3,3.1-1.2,3.3-3.4c0.1-1.3,0.1-2.6,0.1-3.8c0-25.4,0-50.9,0-76.3c0-1.1,0-2.2-0.1-3.4
		c-0.2-2.5-1.1-3.3-3.7-3.5c-1-0.1-1.9,0-2.9,0c-5.4,0-10.9,0-16.3,0c-6.6,0-6.8,0.2-6.8,6.7C767.1,405.6,767.1,418.4,767.1,431.2z"
		/>
	<path class="st0" d="M1374.9,303.6c2.3-1.4,4.1-1,5.8-1c17.8,0,35.5,0,53.3,0c3,0,6.1,0,9.1,0c3.9,0.1,4.2,0.5,4.3,4.5
		c0,1,0,1.9,0,2.9c0,98.9,0,197.7,0,296.6c0,0.6,0,1.3,0,1.9c0,5.5,0,5.5-3.8,9.2c-18.3,18.2-36.5,36.4-54.8,54.6
		c-1.9,1.9-3.9,3.8-5.7,5.7c-1,1-2.1,1.4-3.4,1.4c-1.1,0-2.2,0-3.4,0c-20,0-40,0-60,0c-0.3,0-0.6,0-1,0c-3.8,0.5-6.6-1.1-9.3-3.8
		c-18.9-19.1-38-38.1-57-57.1c-0.8-0.8-1.6-1.5-2.3-2.4c-1.8-2.3-3.2-4.8-2.9-7.9c0.1-1.3,0-2.6,0-3.8c0-97.7,0-195.5,0-293.2
		c0-1.8,0-3.5,0.1-5.3c0.1-2.3,0.9-3,3.3-3.3c1-0.1,1.9-0.1,2.9-0.1c20.5,0,41,0,61.4,0c5.7,0,6,0.4,6.1,5.9c0,1.6,0,3.2,0,4.8
		c0,96.8,0,193.6,0,290.4c0,1.9-0.1,3.8,0.1,5.8c0.2,2.9,1.2,3.9,4.2,4.1c1,0.1,1.9,0.1,2.9,0.1c14.4,0,28.8,0,43.2,0
		c6.5,0,6.8-0.2,6.8-6.7c0-57.4,0-114.9,0-172.3c0-41.4,0-82.9,0-124.3C1374.7,308,1374.8,305.8,1374.9,303.6z"/>
	<path class="st0" d="M974.8,490.8c0-38.6,0.1-77.1-0.1-115.7c0-4.9,1.4-8.3,4.9-11.7c10.1-9.7,19.9-19.8,29.7-29.8
		c6.3-6.3,12.4-12.8,18.6-19.2c3.5-3.5,7.1-6.8,10.6-10.3c1.1-1.1,2.3-1.7,3.8-1.6c1.1,0,2.2,0,3.4,0c21,0,41.9,0,62.9,0
		c1.1,0,2.2,0,3.4,0c1.7,0,3.1,0.7,4.3,1.8c0.9,0.9,1.8,1.8,2.7,2.7c9.2,9.2,18.1,18.6,27.5,27.4c10.2,9.5,19.9,19.4,29.7,29.2
		c0.5,0.5,1,0.8,1.4,1.3c2.1,2.2,3.1,4.6,3.1,7.8c-0.1,14.7,0,29.4,0,44.2c0,5.4,0,10.9,0,16.3c0,1.1,0,2.2-0.1,3.4
		c-0.1,1.3-0.9,2.1-2.1,2.3c-1.7,0.3-3.5,0.5-5.2,0.5c-9.6,0-19.2,0-28.8,0c-10.1,0-20.2,0-30.2,0c-1.6,0-3.2-0.1-4.8-0.4
		c-1.4-0.2-2.3-1.1-2.4-2.6c-0.1-1.4-0.1-2.9-0.1-4.3c0-18.4,0-36.8,0-55.2c0-1.6,0-3.2-0.1-4.8c-0.2-2.2-1.2-3.2-3.3-3.4
		c-1.1-0.1-2.2-0.1-3.4-0.1c-15.2,0-30.4,0-45.6,0c-1.6,0-3.2,0.2-4.8,0.4c-1.4,0.2-2.3,1.2-2.4,2.6c-0.1,1.6-0.1,3.2-0.1,4.8
		c0,44.3,0,88.6,0,132.9c0,32,0,64,0,96c0,1.8,0,3.5,0.1,5.3c0.1,1.2,0.8,2.1,2.1,2.3c1.4,0.2,2.8,0.5,4.3,0.5c15.7,0,31.4,0,47,0
		c0.2,0,0.3,0,0.5,0c4.7-0.1,5.6-0.9,5.6-5.7c0-17.3,0-34.6,0-51.8c0-0.8,0-1.6-0.1-2.4c-0.3-1.9-1.2-2.9-3.1-3.2
		c-1.3-0.2-2.6-0.2-3.8-0.2c-5.1,0-10.2,0-15.4,0c-0.8,0-1.6,0-2.4,0c-2.9-0.2-3.7-0.9-4-3.7c-0.1-1.1-0.1-2.2-0.1-3.4
		c0-16.8,0-33.6,0-50.4c0-6.1,0.1-6.2,6.2-6.2c29.8,0,59.5,0,89.3,0c7,0,7.1,0.1,7.1,7.4c0,37.4-0.1,74.9,0.1,112.3
		c0,5.1-1.7,8.8-5.3,12.2c-5.8,5.5-11.3,11.3-17,17c-13,13-26,26-39,39c-0.9,0.9-1.9,1.8-2.7,2.7c-1.4,1.5-3.1,2.2-5.1,2.2
		c-1.3,0-2.6,0-3.8,0c-14.2,0-28.5,0-42.7,0c-6.1,0-12.2,0.2-18.2,0.2c-1.1,0-2.2,0-3.4,0c-2,0-3.6-0.6-5.1-2.2
		c-6.2-6.4-12.6-12.7-18.9-19c-13.7-13.6-27.3-27.3-41-40.9c-3.7-3.7-3.7-3.7-3.7-9.3C974.8,569.2,974.8,530,974.8,490.8z"/>
	<path class="st0" d="M325.4,303.2c1.2,1.7,0.8,3.5,0.8,5.2c0,7.7,0,15.4,0,23c0,16,0,32,0,48c0,1.9,0.3,3.8-0.5,5.6
		c-1.4,1.4-3.1,1-4.6,1c-7.4,0-14.7,0-22.1,0c-7.4,0-14.7,0-22.1,0c-1.3,0-2.6,0-3.8,0.1c-1.8,0.2-2.6,0.9-2.7,2.8
		c-0.1,2.1-0.1,4.2-0.1,6.2c0,92,0,183.9,0,275.9c0,1.9,0,3.8-0.1,5.8c-0.1,2.1-0.8,2.7-3,2.9c-1.1,0.1-2.2,0.1-3.4,0.1
		c-27.2,0-54.4,0-81.6,0c-6.6,0-6.7,0-6.7-6.6c0-92.6,0-185.2,0-277.8c0-1.9,0-3.8-0.1-5.8c-0.1-2.4-0.8-3.1-3.2-3.3
		c-1.6-0.2-3.2-0.2-4.8-0.2c-13.8,0-27.5,0-41.3,0c-1.4,0-2.9,0-4.3-0.2c-1-0.1-1.8-0.8-1.9-1.8c-0.2-1.1-0.2-2.2-0.2-3.3
		c0-24.2,0-48.3,0-72.5c0-5.5,0.1-5.6,5.7-5.6c29.8,0,59.5,0,89.3,0c34.9,0,69.7,0,104.6,0C321.4,302.6,323.5,302.2,325.4,303.2z"/>
	<path class="st0" d="M315.8,203.5c-0.1,1.6-0.2,3.2-0.2,4.7c0,6.6,0,13.1,0,19.7c0,4-0.4,4.4-4.4,4.4c-5.4,0.1-10.9,0-16.3,0
		c-0.8,0-1.6,0-2.4-0.2c-1.1-0.2-1.7-0.8-1.9-1.9c-0.1-1.1-0.2-2.2-0.2-3.4c0-32.5,0-65-0.1-97.4c0-3.1,0.8-5.5,3.1-7.6
		c5.6-5.4,11.1-11,16.6-16.5c2.2-2.3,4.8-3.3,8.1-3.3c13,0.2,25.9,0,38.9,0.1c5.2,0,5.7,0.5,5.7,5.8c0,17,0,33.9,0,50.9
		c0,22.2,0,44.5,0,66.7c0,1.4,0,2.9-0.1,4.3c-0.1,1.6-0.8,2.2-2.4,2.4c-0.3,0-0.6,0.1-1,0.1c-5.9,0-11.8,0.1-17.8,0
		c-2.8,0-3.4-0.6-3.5-3.4c-0.1-1.1,0-2.2,0-3.4c0-5.9,0-11.8,0-17.8c0-1.3,0-2.6-0.2-3.8c-0.1-1.2-0.9-2-2.2-2.2
		c-0.8-0.1-1.6-0.2-2.4-0.2c-3.8,0-7.7,0-11.5,0C319.8,201.6,317.9,201.8,315.8,203.5z M336.6,124.4c-3.1-0.6-6.1-0.2-9.1-0.3
		c-1.9-0.1-3.5,0.4-4.8,1.6c-1.7,1.5-3.4,2.9-4.8,4.6c-1.5,1.9-2.3,4-2.3,6.6c0.1,12.6,0.1,25.2,0.1,37.8c0,1.2,0.2,2.5,0.3,3.5
		c1.8,1.8,3.8,2.2,6,2.2c3.5,0,7,0.1,10.5,0c4.9-0.1,5.5-0.6,5.5-5.5c0-14.8,0-29.7,0-44.5C338,128.5,337.9,126.6,336.6,124.4z"/>
	<path class="st0" d="M636.9,167.6c0-19.4,0-38.7,0-58.1c0-1.6,0-3.2,0.2-4.8c0.2-1.8,1-2.4,2.9-2.6c1-0.1,1.9-0.1,2.9-0.1
		c12.8,0,25.6,0.1,38.4-0.1c3.6,0,6.4,1.2,9,3.7c3.3,3.2,6.8,6.2,10.3,9.3c2.6,2.3,3.7,5.1,3.6,8.5c-0.1,8.5-0.1,17,0,25.4
		c0,3.6-1.1,6.5-4,8.8c-1.7,1.4-3.1,3.2-4.5,4.9c-0.8,1-0.8,2.1,0,3.1c0.8,1,1.7,1.9,2.7,2.7c2,1.8,4,3.7,6.1,5.4
		c1.4,1.1,2,2.4,2.1,4.1c0,1,0.1,1.9,0.1,2.9c0,9.9-0.1,19.8,0.1,29.7c0.1,3.5-1.1,6-3.8,8.2c-3.4,2.8-6.4,6.2-9.6,9.3
		c-0.6,0.6-1.1,1.2-1.6,1.7c-1.7,1.9-3.8,2.7-6.4,2.6c-14.6-0.1-29.1,0-43.7,0c-0.8,0-1.6,0-2.4-0.1c-1.3-0.2-2-0.8-2.1-2.2
		c-0.1-1.6-0.1-3.2-0.1-4.8C636.9,206,636.9,186.8,636.9,167.6z M662.3,209.5c5.6,1.1,10.7,0.6,15.8,0.6c2.4,0,3.1-0.7,3.4-3.1
		c0.2-1.4,0.2-2.9,0.2-4.3c0-6.5,0-13.1,0-19.6c0-1.1,0-2.2-0.1-3.3c-0.2-2.3-0.9-3.1-3.3-3.2c-4.3-0.1-8.6,0-12.9,0
		c-0.3,0-0.6,0.1-0.9,0.1c-1.7,0.3-2.4,1-2.6,2.9c-0.1,0.6-0.1,1.3-0.1,1.9c0,7.6,0,15.3,0,22.9C661.9,206,662.1,207.6,662.3,209.5z
		 M661.9,140.9C661.8,140.9,661.8,140.9,661.9,140.9c0,2.9-0.1,5.8,0,8.6c0,1.1,0.1,2.2,0.1,3.4c0.1,2,1.3,3.2,3.2,3.7
		c0.9,0.2,1.9,0.3,2.8,0.3c2.9,0,5.8,0,8.6,0c3.4,0,4.5-0.2,5-4.8c0.1-1,0.1-1.9,0.1-2.9c0-5.8,0-11.5,0-17.3c0-1,0-1.9-0.1-2.9
		c-0.2-2.3-1-3.3-3.3-3.3c-4.3-0.1-8.6-0.1-12.9,0.1c-2.7,0.1-3.4,0.9-3.5,3.6C661.8,133.2,661.9,137,661.9,140.9z"/>
	<path class="st0" d="M176,164.1c2.5,2.9,5.1,5.1,7.8,7.3c5.6,4.6,5.4,2.6,5.4,10.6c0,9.4-0.1,18.9,0,28.3c0,2.7-0.6,4.9-2.7,6.8
		c-4,3.9-7.9,7.8-11.8,11.9c-2.2,2.3-4.7,3.4-8,3.3c-11.5-0.2-23-0.1-34.5-0.1c-2.7,0-5.4,0-8.2,0c-1.2,0-2.4-0.4-3.4-0.5
		c-1.2-1.8-1-3.5-1-5.1c0-39.3,0-78.7,0-118c0-6.4,0.3-6.6,6.9-6.6c12.3,0,24.6,0.1,36.9-0.1c4-0.1,7,1.3,9.7,4.1
		c3.6,3.8,7.5,7.4,11.3,11c1.6,1.4,2.1,3.1,2.1,5.1c0,9.3,0,18.5,0,27.8c0,2-0.4,3.7-2,5.1c-1.8,1.6-3.4,3.4-5,5.1
		C178.5,161.5,177.3,162.8,176,164.1z M163.6,209.4c0.3-1.2,0.7-2.5,0.7-3.7c0.1-8.5,0.1-17,0-25.4c0-2.7-0.8-3.6-3.4-3.7
		c-4.5-0.2-9-0.1-13.4,0c-1.8,0-2.6,0.9-2.8,2.6c-0.1,0.8-0.1,1.6-0.1,2.4c0,7.5,0,15,0,22.6c0,1.1,0.1,2.2,0.2,3.3
		c0.3,1.8,0.9,2.6,2.8,2.6c4.6,0.1,9.3,0,13.9-0.1C162.2,209.9,162.8,209.6,163.6,209.4z M164.4,140.9
		C164.4,140.9,164.4,140.9,164.4,140.9c0-3.8,0-7.7-0.1-11.5c-0.1-2.6-0.9-3.5-3.4-3.6c-4.3-0.2-8.6-0.2-12.9-0.1
		c-2.3,0.1-3.1,1-3.3,3.3c-0.1,0.6-0.1,1.3-0.1,1.9c0,6.5,0,13.1,0,19.6c0,1.3,0.1,2.5,0.4,3.8c0.3,1.8,1,2.5,2.9,2.5
		c4,0.1,8,0,12,0c0.3,0,0.6,0,0.9-0.1c2.2-0.4,3.1-1.2,3.4-3.4c0.2-1.1,0.2-2.2,0.2-3.3C164.4,146.9,164.4,143.9,164.4,140.9z"/>
	<path class="st0" d="M990.4,231.7c-0.8,0.2-1.7,0.6-2.6,0.6c-5.9,0.1-11.8,0-17.7,0c-0.5,0-1,0-1.4-0.1c-1.3-0.2-2.1-0.9-2.2-2.1
		c-0.1-1.1-0.2-2.2-0.2-3.3c0-39.2,0-78.3,0-117.5c0-1.6,0.2-3.2,0.4-4.8c0.2-1.4,1.2-2.2,2.7-2.3c1.1,0,2.2-0.1,3.4-0.1
		c12.6,0,25.3,0.1,37.9-0.1c3.7,0,6.4,1.2,8.9,3.7c3.2,3.3,6.7,6.4,10.1,9.5c2.6,2.4,3.9,5.1,3.8,8.8c-0.3,8.1-0.3,16.3,0,24.5
		c0.2,4.3-1.2,7.4-4.4,10.1c-2.7,2.2-4.9,5-6.4,8.2c0.9,1.8,2.3,3.1,3.7,4.4c1.2,1.1,2.4,2.1,3.6,3.2c6,5.3,6,5.3,6,13.5
		c0,12.8,0,25.6,0,38.4c0,6,0,6-6.2,6c-4.2,0-8.3,0-12.5,0c-1.1,0-2.2,0-3.4-0.1c-1.9-0.2-2.6-0.8-2.7-2.7c-0.1-1.4-0.1-2.9-0.1-4.3
		c0-11.2,0-22.4,0-33.6c0-1.3,0-2.6,0-3.8c0-2.4-0.7-4.3-2.7-5.8c-0.9-0.6-1.7-1.5-2.4-2.3c-3.5-4.4-8.2-3.4-12.8-3
		c-1,0.1-1.6,1.1-1.7,2.1c-0.1,1.6-0.2,3.2-0.2,4.8c0,14.1,0,28.1,0,42.2C991.2,227.7,991.6,229.7,990.4,231.7z M1009.9,156.4
		c1.3-1.7,1.1-3.5,1.2-5.2c0-6.7,0-13.4,0-20.1c0-1-0.1-1.9-0.2-2.9c-0.2-1.2-0.9-2.1-2.1-2.3c-1.1-0.2-2.2-0.3-3.3-0.3
		c-3,0-6.1-0.1-9.1,0c-4.4,0.1-5.1,0.6-5.1,4.9c-0.1,7,0,14,0,21c0,1,0.1,1.9,0.3,2.8c0.3,1.8,1,2.5,2.9,2.5c4.6,0.1,9.2,0,13.9-0.1
		C1008.9,156.9,1009.5,156.5,1009.9,156.4z"/>
	<path class="st0" d="M1356.6,231.5c-1.2-2.2-0.9-4.1-0.9-6c0-14.6,0-29.1,0-43.7c0-2.4,0.1-4.8-1.6-6.8c-3.8-0.8-12.7-0.9-17.7-0.2
		c-1.2,1-1.3,2.5-1.4,3.9c-0.1,1.6-0.1,3.2-0.1,4.8c0,14.1,0,28.2,0,42.2c0,1.9,0.3,3.8-0.8,5.9c-0.9,0.2-1.9,0.6-3,0.6
		c-5.8,0.1-11.5,0-17.3,0c-0.2,0-0.3,0-0.5,0c-2.6-0.2-3.1-0.7-3.3-3.1c-0.1-0.8,0-1.6,0-2.4c0-39.4,0-78.7,0-118.1
		c0-6.2,0.4-6.6,6.4-6.6c4.2,0,8.3,0,12.5,0c1.1,0,2.2,0,3.4,0.1c1.3,0.1,2.1,0.8,2.3,2.1c0.2,1.6,0.3,3.2,0.3,4.8
		c0,12.3,0,24.6,0,37c0,1.9,0.1,3.8,0.3,5.7c0.2,1.6,0.9,2.4,2.5,2.4c5,0.1,9.9,0.1,14.9,0c1.5,0,2.4-0.9,2.6-2.3
		c0.3-1.9,0.4-3.8,0.4-5.7c0-11.5,0-23,0-34.6c0-1.3,0-2.6,0-3.8c0.2-4.2,1.3-5.5,5.4-5.6c3.7-0.1,7.4,0,11,0c1.6,0,3.2,0,4.8,0.1
		c1.9,0.1,2.9,1,3.2,2.9c0.2,1.1,0.1,2.2,0.1,3.4c0,39.5,0,79,0,118.5c0,0.5,0,1,0,1.4c-0.1,3.2-0.6,3.8-3.6,3.8
		c-5.6,0.1-11.2,0.1-16.8,0C1358.7,232.2,1357.5,231.7,1356.6,231.5z"/>
	<path class="st0" d="M522.3,166.9c3.3,3.8,6.6,7,10.3,9.7c2.5,1.8,3.4,4,3.4,6.9c-0.1,12.2,0,24.3,0,36.5c0,2.6,0,5.1,0,7.7
		c0,1.3-0.2,2.5-0.4,3.9c-1.1,0.3-2,0.7-2.9,0.7c-6.1,0.1-12.2,0.1-18.2,0c-2.5,0-3.1-0.7-3.2-3.1c-0.1-1.3,0-2.6,0-3.8
		c0-11.7-0.1-23.4,0.1-35c0-3.4-0.7-6.3-3.5-8.5c-0.2-0.2-0.5-0.4-0.7-0.7c-3.3-4.8-8.1-5.1-13.2-4.6c-1.8,0.2-2.5,0.9-2.7,2.8
		c-0.1,1.4-0.1,2.9-0.1,4.3c0,14.1,0,28.1,0,42.2c0,1.9,0.4,3.8-0.8,5.9c-0.9,0.2-2,0.5-3,0.6c-5.6,0.1-11.2,0-16.8,0
		c-0.5,0-1,0-1.4-0.1c-1.6-0.2-2.3-0.8-2.5-2.4c-0.1-1.3-0.1-2.6-0.1-3.8c0-38.9,0-77.7,0-116.6c0-1.6,0-3.2,0.3-4.8
		c0.2-1.5,1-2.2,2.5-2.4c1.1-0.1,2.2-0.1,3.4-0.1c12.8,0,25.6,0.1,38.4-0.1c3.6,0,6.4,1.1,9,3.7c3.6,3.6,7.4,7,11.2,10.4
		c1.6,1.5,2.5,3.2,2.5,5.4c-0.1,9.8,0,19.5,0,29.3c0,1.9-0.6,3.4-1.8,4.8c-1.9,2.2-3.7,4.4-5.7,6.5
		C524.8,163.5,523.5,164.9,522.3,166.9z M511.2,141.5C511.2,141.5,511.1,141.5,511.2,141.5c-0.1-4.2,0-8.3-0.1-12.5
		c-0.1-2.3-1-3.3-3.2-3.3c-4.5-0.1-8.9-0.1-13.4,0c-2.3,0.1-3,1-3.3,3.3c-0.1,0.6-0.1,1.3-0.1,1.9c0,6.7,0,13.4,0,20.1
		c0,1.3,0.2,2.5,0.4,3.8c0.2,1.2,1,2.1,2.2,2.1c4.9,0.1,9.9,0,14.8,0c1.3,0,2.1-0.9,2.3-2.1c0.2-1.2,0.3-2.5,0.3-3.8
		C511.2,147.9,511.2,144.7,511.2,141.5z"/>
	<path class="st0" d="M1555.7,167.4c0,12.5-0.1,24.9,0.1,37.4c0,3.3-1.1,5.8-3.4,8c-5.4,5.2-10.8,10.4-16.2,15.6
		c-0.6,0.6-1.2,1.1-1.7,1.7c-1.4,1.8-3.3,2.4-5.5,2.3c-6.6-0.1-13.1,0-19.7,0c-1.7,0-3-0.5-4.3-1.7c-3.4-3.4-6.8-6.7-10.3-10
		c-1.8-1.7-3.8-3.4-5.7-5.1c-0.6-0.5-1.2-1.1-1.8-1.5c-2.8-2.2-4.3-5.1-4-8.7c0.1-1,0-1.9,0-2.9c0-23.8,0.1-47.6-0.1-71.4
		c0-4.4,1.1-7.5,4.5-10.3c3.6-2.9,6.5-6.5,9.9-9.7c2.5-2.4,5.2-4.7,7.8-7c1.4-1.2,2.9-1.9,4.8-1.9c5.9,0,11.8,0,17.7,0
		c2.4,0,4.3,1,6,2.5c3.3,3,6.7,6,9.9,9c3.2,3.1,6.3,6.4,9.6,9.3c1.6,1.4,2.2,3,2.2,5c0,2.6,0,5.1,0,7.7
		C1555.7,146.3,1555.7,156.8,1555.7,167.4z M1529.7,209.4c1.4-2,1.1-4.2,1.1-6.2c0-24,0-48,0-71.9c0-1.3,0-2.6-0.2-3.8
		c-0.3-2.2-1.2-3.2-3.4-3.3c-5.6-0.1-11.2,0.1-16.8,0.1c-0.3,0-0.6,0.3-0.9,0.4c-1.7,2-1.3,4.5-1.3,6.9c0,23.7,0,47.3,0,71
		c0,1.4,0,2.9,0.2,4.3c0.3,2.4,1,3.1,3.3,3.2c5.1,0.1,10.2,0,15.3-0.1C1528,210,1528.9,209.6,1529.7,209.4z"/>
	<path class="st0" d="M1181.1,209.9c0.3-2,0.7-3.4,0.7-4.8c0.1-5.8,0-11.5,0-17.3c0-2.6-0.7-4.8-3-6.7c-1.5-1.2-2.9-1.9-4.7-1.9
		c-3.7-0.1-7.4,0-11-0.1c-6.5-0.1-5,0.2-9.2-3.8c-4.9-4.8-9.6-9.8-14.6-14.5c-1.6-1.6-2.5-3.2-2.4-5.4c0-9.1,0-18.2,0-27.3
		c0-1.8,0.5-3.3,1.9-4.7c6.1-6,12.1-12.2,18.2-18.3c2.1-2.1,4.6-3.1,7.8-3c4.6,0.2,9.3,0.2,13.9,0c3.4-0.2,5.9,1.1,8.1,3.3
		c4.6,4.6,9.3,9.3,13.9,13.9c1.4,1.4,2.6,2.8,4,4.1c1.3,1.1,1.9,2.5,2,4.2c0,4.2,0.1,8.3,0,12.5c-0.1,2.4-0.8,3.1-3.3,3.1
		c-6.1,0.1-12.2,0.1-18.2,0c-2.5,0-3.1-0.7-3.2-3.2c-0.1-2.6,0-5.1-0.1-7.7c0-1.3,0-2.6-0.2-3.8c-0.2-1.7-1.1-2.7-2.8-2.7
		c-4.6-0.1-9.3-0.1-13.9,0c-2,0-2.9,1-3.1,2.9c-0.1,0.6-0.1,1.3-0.1,1.9c0,5.4-0.1,10.9,0,16.3c0.1,4.7,2.9,7.8,7.6,8.2
		c1.9,0.2,3.8,0.1,5.8,0.1c1.9,0,3.9,0.2,5.8,0c3.3-0.3,5.9,1,8.1,3.3c5,5,9.8,10,14.9,14.9c2,1.9,2.9,4.1,2.9,6.8
		c0,6.4,0,12.8,0,19.2c0,2.4-0.1,4.8,0,7.2c0.1,2.4-0.7,4.3-2.4,6c-5.9,5.8-11.8,11.7-17.6,17.6c-1.4,1.4-3.1,2.2-5.1,2.2
		c-6.6,0-13.1,0-19.7,0c-2,0-3.7-0.8-5.1-2.3c-5.9-5.9-11.7-11.8-17.6-17.6c-1.3-1.3-2.2-2.7-2.2-4.6c0-3.8-0.1-7.7,0-11.5
		c0.1-2.3,0.7-3,2.8-3.1c6.4-0.1,12.8-0.1,19.2,0c1.8,0,2.5,0.8,2.6,2.8c0.1,2.6,0.1,5.1,0.1,7.7c0,1.4,0.1,2.9,0.3,4.3
		c0.2,1.3,1,2,2.3,2.1C1169.7,210.3,1175.1,210.3,1181.1,209.9z"/>
	<path class="st0" d="M1681.9,231.6c-1.5,0.3-2.6,0.7-3.7,0.7c-5.3,0.1-10.6,0-15.8,0c-0.6,0-1.3,0-1.9-0.1c-2.1-0.3-2.8-1-3-3.1
		c-0.1-1.1-0.1-2.2-0.1-3.4c0-38.5,0-77.1,0-115.6c0-1.4,0-2.9,0.2-4.3c0.3-2,1.8-3.4,3.9-3.7c0.9-0.1,1.9-0.1,2.9-0.1
		c11.5,0,23,0.1,34.5,0c3.5,0,6.2,1.2,8.5,3.6c5.5,5.7,11,11.5,16.7,17.2c1.6,1.6,2.2,3.4,2.2,5.6c-0.1,4.3,0,8.6,0,12.9
		c0,6.9-0.1,13.8,0,20.6c0.1,3.1-0.9,5.5-3.2,7.6c-5.3,5.1-10.5,10.2-15.6,15.5c-1.9,2-4.1,2.9-6.8,2.8c-3.5,0-7,0-10.6,0
		c-0.8,0-1.6,0-2.4,0c-4.3,0-5.7,1.5-5.7,5.8c0.1,10.7,0,21.4,0,32.1C1682,227.6,1681.9,229.3,1681.9,231.6z M1682.3,164.1
		c0.9,0.5,1.4,0.9,2,1.1c4.9,1,9.8,0.8,14.7,0.2c1.6-0.2,2.3-1.2,2.4-3.1c0.1-3.5,0.1-7,0.1-10.5c0-7.2,0-14.4,0-21.5
		c0-3.4-0.8-4.3-4.2-4.5c-3.3-0.2-6.7-0.2-10,0c-4.2,0.2-5.2,1.3-5.2,5.7c0,9.7,0,19.5,0,29.2C1682,161.6,1682.2,162.7,1682.3,164.1
		z"/>
	<path class="st0" d="M862.9,231.2c-2,1.5-3.9,1.1-5.8,1.1c-13.8,0-27.5,0-41.3,0c-0.5,0-1,0-1.4,0c-4.4-0.1-4.7-0.4-4.8-4.6
		c0-0.8,0-1.6,0-2.4c0-38.4,0-76.8,0-115.2c0-1.8,0-3.5,0.2-5.3c0.2-1.6,1.3-2.5,2.9-2.7c1.1-0.1,2.2-0.1,3.4-0.1
		c13.6,0,27.2,0,40.8,0c0.6,0,1.3,0,1.9,0c3.5,0.2,4.4,0.8,4.5,4.2c0.1,5,0,9.9,0,14.9c0,0.8,0,1.7-0.4,2.3c-0.5,0.8-1.2,1.6-2,1.8
		c-1.2,0.4-2.5,0.3-3.8,0.3c-5,0-9.9,0-14.9,0c-1.1,0-2.2,0-3.4,0c-3.4,0.2-4.4,1-4.5,4.3c-0.1,6.9-0.1,13.8,0,20.6
		c0,3.1,0.9,4,4.1,4c4.8,0.1,9.6,0,14.4,0.1c6.4,0,6.6,0.2,6.6,6.4c0,2.9-0.1,5.8,0,8.6c0.2,4-1.7,6.4-6.4,6.2
		c-4.3-0.2-8.6-0.1-13,0c-5.1,0.1-5.7,0.7-5.7,5.9c0,7.2,0,14.4,0,21.6c0,0.5,0,1,0,1.4c0.2,4.6,0.9,5.2,5.4,5.3
		c3.4,0.1,6.7,0,10.1,0c2.9,0,5.8,0,8.6,0c4.5,0.1,4.8,0.4,4.9,5c0,4.2,0,8.3,0,12.5C863.2,228.9,863,230.2,862.9,231.2z"/>
</g>
</svg>
