<?xml version="1.0" encoding="utf-8"?>
<!-- Generator: Adobe Illustrator 21.1.0, SVG Export Plug-In . SVG Version: 6.00 Build 0)  -->
<svg version="1.1" id="Слой_1" xmlns="http://www.w3.org/2000/svg" xmlns:xlink="http://www.w3.org/1999/xlink" x="0px" y="0px"
	 viewBox="0 0 459 100" style="enable-background:new 0 0 459 100;" xml:space="preserve">
<style type="text/css">
	.st0{fill:#ff0a01;}
</style>
<g>
	<path class="st0" d="M207.9,35.2c2,2,3.9,4,5.9,5.9c1.5,1.4,1.5,1.4,2.9-0.1c1.2-1.3,2.4-2.5,3.7-3.8c0.2-0.2,0.4-0.5,0.7-0.6
		c0.4-0.2,1-0.4,1.3-0.3c0.3,0.2,0.5,0.8,0.5,1.2c0,3.3,0,6.6,0,10c0,0.9,0,1.8,0,2.6c0,1.3-0.5,1.8-1.7,1.8c-9,0-18,0-27,0
		c-1.3,0-1.4-1-1.4-1.9c0-3,0-6,0-9c0-1.2,0-2.4,0-3.6c0-0.3,0.2-0.8,0.5-1c0.1-0.1,0.7,0.2,0.9,0.4c1.8,1.7,3.5,3.5,5.5,5.4
		c0.8-0.6,1.7-1.2,2.5-2c1.8-1.7,3.5-3.4,5.2-5.1C207.6,35.2,207.7,35.2,207.9,35.2z"/>
	<path class="st0" d="M75.2,64.5c0.4-0.3,0.7-0.8,1.2-1c1.5-0.4,2.3-1.4,2.8-2.7c3.2-7.7,6.5-15.3,9.7-22.9c0.2-0.5,0.5-1,0.7-1.5
		c0.9-0.1,1.3,0.4,1.6,1.1c2.8,7.1,5.6,14.2,8.5,21.2c0.4,1,0.9,2,1.4,2.9c0.5,1,1.2,1.6,2.3,1.8c0.4,0.1,0.8,0.7,1.2,1
		c-0.1,0.1-0.2,0.2-0.2,0.3c-3.4,0-6.8,0-10.2,0c-0.1-0.1-0.1-0.2-0.2-0.3c0.5-0.4,0.9-0.9,1.4-1.1c1.2-0.4,1.4-1.2,1-2.1
		c-0.8-2-1.6-4-2.6-5.9c-0.2-0.4-0.8-0.7-1.3-0.8c-2.5-0.1-4.9-0.2-7.4-0.2c-0.6,0-1.4,0.7-1.6,1.2c-0.9,1.9-1.6,3.9-2.4,5.9
		c-0.3,0.9-0.1,1.5,0.9,1.8c0.7,0.2,1.2,0.7,1.8,1.1c0,0.2-0.1,0.3-0.1,0.5c-2.8,0-5.6,0-8.4,0C75.2,64.8,75.2,64.6,75.2,64.5z
		 M88.5,42.9c-0.3,0.8-0.5,1.3-0.8,1.8c-0.9,2.2-1.8,4.3-2.6,6.5c-0.4,1.2-0.1,1.5,1.1,1.6c1.5,0,3,0,4.5,0c1.5,0,1.9-0.5,1.4-1.9
		c-0.8-2.3-1.7-4.5-2.7-6.8C89.4,43.7,88.9,43.4,88.5,42.9z"/>
	<path class="st0" d="M140.8,36.4c0.3,1.1-0.1,1.5-0.9,1.6c-1.3,0.3-1.8,1-1.7,2.3c0.3,6,0.6,12,0.9,18c0,1,0,2,0,3
		c0,1.2,0.5,1.9,1.6,2.2c0.2,0,0.4,0,0.5,0.1c0.3,0.3,0.5,0.7,0.8,1.1c-0.4,0.1-0.7,0.4-1.1,0.4c-1.8,0-3.6-0.1-5.4-0.2
		c-1.1,0-2.1,0-3.2,0c-0.1-1,0.4-1.3,1.1-1.4c1.8-0.5,2-0.7,1.9-2.6c-0.2-5.7-0.5-11.5-0.7-17.2c-0.1-0.1-0.2-0.2-0.3-0.3
		c-0.4,0.3-1,0.5-1.2,1c-1.5,3.5-2.9,7.1-4.3,10.6c-1.2,3.1-2.5,6.1-3.8,9.2c-0.2,0.4-0.6,0.9-0.7,0.9c-0.4-0.2-0.9-0.5-1.1-0.9
		c-3.1-7.1-6.2-14.2-9.3-21.3c-0.1-0.2-0.2-0.4-0.5-0.8c-0.2,0.7-0.4,1.1-0.4,1.5c-0.3,5.7-0.7,11.5-1,17.2c-0.1,1.6,0.2,2,1.8,2.5
		c0.3,0.1,0.7,0.2,0.9,0.5c0.2,0.2,0.4,0.6,0.3,0.8c-0.1,0.2-0.5,0.4-0.7,0.4c-2.4,0-4.8,0-7.1,0c-0.1-1.1,0.2-1.6,1.1-1.7
		c1-0.2,1.7-0.9,1.7-2c0.1-2.2,0.2-4.3,0.3-6.5c0.2-4.8,0.4-9.6,0.7-14.4c0.1-1.3-0.2-2.3-1.7-2.5c-0.4-0.1-0.7-0.7-1-1
		c0.4-0.2,0.8-0.5,1.2-0.5c1.7,0,3.4,0,5,0.3c0.6,0.1,1.2,0.8,1.5,1.4c1.4,3.1,2.7,6.2,4.1,9.3c1.4,3.2,2.7,6.5,4.1,9.7
		c0.2,0.4,0.7,0.8,1.1,0.8c0.3,0,0.8-0.5,1-0.9c2.4-6.1,4.9-12.1,7.2-18.2c0.6-1.5,1.4-2.4,3.2-2.2C138,36.7,139.4,36.5,140.8,36.4z
		"/>
	<path class="st0" d="M207.8,54.7c4.2,0,8.5,0,12.7,0c1.9,0,2.2,0.3,2.2,2.2c0,2,0,4,0,6c0,1.5-0.6,2-2,2c-8.3,0-16.6,0-25,0
		c-2.1,0-2.5-0.4-2.5-2.5c0-2,0-4.1,0.1-6.1c0-1.4,0.3-1.6,1.6-1.6C199.2,54.7,203.5,54.7,207.8,54.7z"/>
	<path class="st0" d="M282.7,64.9c-1.7,0-3.3,0-4.9,0c-1.7,0-3.4,0.2-5.1,0.2c-0.4,0-0.9-0.3-1.3-0.5c0.4-0.4,0.7-0.8,1.1-1.1
		c0-0.1,0.1-0.1,0.2-0.1c2-0.6,2-0.7,2-2.8c0-6.6,0-13.2,0-19.8c0-2-0.2-2.2-2.2-2.8c-0.5-0.1-0.9-0.5-1.3-0.8
		c0-0.1,0.1-0.3,0.1-0.4c0.5-0.1,0.9-0.4,1.4-0.3c4.5,0.2,9.1,0.4,13.6,0.7c2.9,0.2,4.6,2.3,5.4,4.9c0.8,2.6,0.2,5.1-1.8,7.1
		c-0.7,0.7-1.4,1.3-2.2,1.8c-0.7,0.6-0.9,1.2-0.4,2c2.4,3.2,4.9,6.4,7.4,9.6c0.4,0.4,1.1,0.5,1.6,0.9c0.5,0.3,0.9,0.7,1.4,1.2
		c-2.2,1.3-6.4,0.7-7.7-0.9c-2.1-2.7-4-5.5-6-8.2c-0.6-0.9-1.2-1.8-1.9-2.6c-0.2-0.3-0.7-0.5-1.1-0.6c-2-0.2-2.3,0.1-2.3,2.1
		c0,2.2,0,4.5,0,6.7c0,1.9,0.1,2,2.1,2.3C282.3,63.5,282.4,63.6,282.7,64.9z M278.9,44.4c0,1.2,0,2.4,0,3.6c0,2.1,0.6,2.6,2.7,2.4
		c0.4,0,0.7-0.1,1.1-0.1c2.9-0.5,4.6-2,4.8-4.9c0.2-3.5-0.7-5.4-3.4-6.4c-1.2-0.4-2.6-0.4-3.8-0.6c-0.9-0.1-1.3,0.3-1.3,1.2
		C278.9,41.3,278.9,42.8,278.9,44.4z"/>
	<path class="st0" d="M173,64c0.2,1.1,0,1.2-1.4,1.1c-2.6-0.1-5.3,0-7.9,0c-0.5,0-0.9-0.2-1.4-0.4c0.3-0.4,0.5-1,0.9-1.2
		c1.2-0.6,1.3-1.1,0.3-2.2c-2.4-2.6-4.8-5.2-7.3-7.8c-0.5-0.6-1.1-1.2-1.9-2c-0.2,0.7-0.4,1.1-0.4,1.6c-0.1,2.8-0.1,5.6-0.2,8.4
		c0,1.1,0.6,1.6,1.6,2c0.5,0.2,0.9,0.6,1.3,1c-0.1,0.1-0.1,0.2-0.2,0.4c-3.2,0-6.5,0-9.7,0c-0.1-0.1-0.2-0.1-0.3-0.2
		c0.4-0.4,0.7-1,1.2-1.1c1.4-0.3,1.9-1.2,2-2.5c0.1-1,0.2-1.9,0.2-2.9c0-5.4-0.1-10.9-0.1-16.3c0-0.5,0-1,0-1.6
		c-0.1-1.2-0.6-2-1.8-2.4c-0.5-0.1-1-0.6-1.5-0.9c0-0.1,0.1-0.3,0.1-0.4c3.4,0,6.8,0,10.3,0c0.1,0.7-0.3,1.1-1.1,1.4
		c-1.8,0.5-1.8,0.7-1.8,2.5c0,2.3-0.2,4.6-0.2,6.8c0,0.7,0.2,1.3,0.4,2.3c0.6-0.5,1-0.7,1.3-1c2.6-2.5,5.2-5,7.7-7.6
		c0.4-0.4,0.8-0.9,1-1.4c0.4-0.7,0.3-1.2-0.5-1.5c-0.5-0.2-0.8-0.7-1.5-1.4c0.9-0.1,1.4-0.3,1.9-0.3c2,0,4,0,6,0
		c0.3,0,0.8,0.3,0.8,0.4c0,0.3-0.2,0.9-0.4,1c-5.2,2.1-7.9,7-12,10.3c-0.7,0.6-0.6,1.3-0.1,1.9c3.5,3.8,7,7.7,10.6,11.4
		C170.2,62.5,171.6,63.1,173,64z"/>
	<path class="st0" d="M327,50c-0.1,3.9-0.6,7-2.6,9.7c-2.6,3.4-6.2,5.1-10.3,5.6c-4.2,0.5-8.1-0.5-11.2-3.4c-4-3.9-5.4-8.7-4.2-14.2
		c1-4.6,3.5-8.1,7.8-10.3c4.5-2.2,13.7-1.8,18,4.6C326.1,44.5,327.2,47.4,327,50z M322.5,52.4c0-3.3-0.6-6.4-2.3-9.3
		c-1.1-2-2.7-3.5-4.9-4.3c-3.5-1.3-9.7-0.1-11.6,4.6c-0.7,1.7-0.9,3.4-1,5.1c-0.2,3.9,0.5,7.6,2.8,10.8c3.9,5.5,11.3,5.5,15.2,0.2
		C322.2,57.3,322.5,54.9,322.5,52.4z"/>
	<path class="st0" d="M264.5,44c-0.4-0.4-0.9-0.7-1.1-1.1c-1-3.5-3.6-4.7-6.9-4.9c-4-0.2-7.7,0.7-10.1,4.4c-1.6,2.4-2.1,5.2-2,8
		c0.1,3,0.7,5.8,2.5,8.3c3.2,4.3,7.8,5.5,12.5,4.6c1-0.2,1.4-0.9,1.4-1.9c-0.1-1-0.1-2.1,0.1-3.1c0.2-1.4-0.4-2.5-1-3.6
		c-0.1-0.2-0.7-0.2-1-0.4c-0.5-0.3-1.6,0.1-1.4-1c0.1-1.1,1.1-0.7,1.7-0.7c1.8,0,3.5,0.2,5.3,0.2c0.7,0,1.4-0.2,2-0.2
		c0.4,0,0.8,0.5,1.1,0.7c-0.3,0.3-0.5,0.8-0.8,0.9c-1.5,0.3-1.8,1.2-1.8,2.5c0.1,2,0,4.1,0,6.1c0,0.8-0.2,1.2-0.9,1.4
		c-1.6,0.4-3.2,0.9-4.9,1c-3.6,0.3-7.2,0.4-10.7-0.9c-4.8-1.8-7.6-5.1-8.3-10.1c-0.4-2.3-0.4-4.8,0.1-7c1.1-5.8,6.6-11.3,13.5-11
		c2.9,0.1,5.9,0.5,8.8,0.7c1,0.1,1.6,0.6,1.8,1.7c0.1,1.1,0.4,2.3,0.6,3.4c0.1,0.6,0,1.2,0,1.7C264.8,43.9,264.6,43.9,264.5,44z"/>
	<path class="st0" d="M351,36.6c2.7,0,5.5,0,8.2,0c0.1,0.1,0.2,0.3,0.2,0.4c-0.5,0.3-0.9,0.8-1.4,1c-1.7,0.6-1.9,0.8-1.9,2.6
		c0,4.8,0,9.7,0,14.5c0,1.2-0.1,2.5-0.5,3.7c-0.8,2.6-2.4,4.6-5,5.6c-4,1.5-8.1,1.5-12.1,0c-3.2-1.3-5.2-3.7-5.3-7.2
		c-0.2-5.1-0.1-10.3-0.2-15.5c0-0.5,0-1,0-1.4c0-1.3-0.7-2-1.9-2.2c-0.8-0.1-1.2-0.5-1.2-1.5c3.5,0,6.9,0,10.4,0
		c0.1,0.2,0.1,0.3,0.2,0.5c-0.6,0.4-1.1,0.9-1.8,1c-1.1,0.3-1.6,0.9-1.6,2.2c0,5-0.2,10.1,0.1,15.1c0.2,5,2.9,7.2,7.1,7.4
		c1.6,0.1,3.3-0.2,4.9-0.5c2.9-0.7,4.8-3.2,4.8-6.5c0.1-5.3,0-10.6,0-15.8c0-1.2-0.8-1.6-1.8-1.9c-0.5-0.2-1-0.6-1.5-0.9
		C350.9,36.9,350.9,36.7,351,36.6z"/>
	<path class="st0" d="M363.8,64.8c-0.3-0.8,0.1-1.2,0.9-1.4c1.9-0.5,2.2-0.9,2.2-2.8c0-6.6,0-13.2,0-19.8c0-2-0.3-2.3-2.2-2.8
		c-0.3-0.1-0.6-0.2-0.8-0.4c-0.2-0.2-0.3-0.6-0.3-0.8c0-0.1,0.4-0.3,0.6-0.4c0.2-0.1,0.4,0,0.6,0c3.9,0.1,7.9,0.1,11.8,0.3
		c4.9,0.2,8.6,4.9,7.4,9.4c-0.9,3.5-4.4,6.3-8.3,6.6c-1,0.1-2.1,0-3.1,0c-1.3,0-1.8,0.4-1.8,1.7c0,2.2,0,4.3,0,6.5
		c0,1.4,0.5,2.1,1.9,2.5c0.5,0.1,1.1,0.2,1.6,0.4c0.3,0.1,0.5,0.5,0.5,0.8c0,0.2-0.4,0.4-0.6,0.6c-0.1,0.1-0.3,0.1-0.5,0.1
		c-3.2-0.1-6.5-0.1-9.7-0.2C364,64.9,363.9,64.9,363.8,64.8z M370.8,44.8C370.8,44.8,370.8,44.8,370.8,44.8c0,1.2,0,2.3,0,3.5
		c0,2.8,0.1,3,3,2.8c3.2-0.2,5.2-1.8,5.7-4.6c0.1-0.8,0.1-1.6,0.1-2.4c-0.2-3.5-2.3-5.5-5.9-5.5c-0.4,0-0.8,0.1-1.2,0
		c-1.3-0.2-1.6,0.6-1.6,1.6C370.8,41.7,370.8,43.2,370.8,44.8z"/>
</g>
</svg>
